<svg xmlns="http://www.w3.org/2000/svg" xmlns:xlink="http://www.w3.org/1999/xlink" viewBox="0 0 382.32 397.12"><defs><clipPath id="a" transform="translate(-110.9 71.09)"><rect x="110.9" y="-71.09" width="382.32" height="397.12" fill="none"/></clipPath></defs><g clip-path="url(#a)"><path d="M189.64,299.64a15.69,15.69,0,0,0,0,8.19,15.69,15.69,0,0,1,0-8.19" transform="translate(-110.9 71.09)" fill="#fff"/><path d="M191.59,289.31l1.87.56h0l-1.87-.56" transform="translate(-110.9 71.09)" fill="#fff"/><path d="M182.55,301.19c-.72,1.24-1.49,2.44-2.28,3.63.79-1.19,1.56-2.39,2.28-3.63,2.36-4.09,4.44-8.35,6.66-12.58l.87.26-.87-.26c-2.22,4.23-4.3,8.49-6.66,12.58" transform="translate(-110.9 71.09)" fill="#fff"/><path d="M249.6,306.35a3.93,3.93,0,0,0-.84.18,4,4,0,0,1,.83-.18c3.36-.37,6.73-.71,10.28-1.09l0,0,0,0c-3.56.38-6.92.72-10.28,1.09" transform="translate(-110.9 71.09)" fill="#fff"/><path d="M132.73,158.6a5.27,5.27,0,0,0,.19.51c.35.72.7,1.43,1.08,2.17-.38-.74-.73-1.45-1.08-2.17a5.27,5.27,0,0,1-.19-.51" transform="translate(-110.9 71.09)" fill="#fff"/><path d="M141.56,188.59l2.9,1.21c1,.43,2.2.85,3.22,1.37-1-.52-2.21-.94-3.22-1.37l-2.9-1.21" transform="translate(-110.9 71.09)" fill="#fff"/><path d="M189.65,307.83a15.12,15.12,0,0,0,.57,1.64,15.12,15.12,0,0,1-.57-1.64" transform="translate(-110.9 71.09)" fill="#fff"/><path d="M244.41,311.56a29.7,29.7,0,0,1-2.24,3.81,29.7,29.7,0,0,0,2.24-3.81" transform="translate(-110.9 71.09)" fill="#fff"/><path d="M135.31,147.48a3.9,3.9,0,0,0-.67-.79,3.9,3.9,0,0,1,.67.79" transform="translate(-110.9 71.09)" fill="#fff"/><path d="M476.82,204.3a10.67,10.67,0,0,0,.2-1.49,12.4,12.4,0,0,1-.2,1.49h0" transform="translate(-110.9 71.09)" fill="#fff"/><path d="M269,317l.14.06L269,317Z" transform="translate(-110.9 71.09)" fill="#fff"/><path d="M289.28,317.24a19,19,0,0,1-10.2,2.25,19,19,0,0,0,10.2-2.25,4.48,4.48,0,0,1,3-.62,4.48,4.48,0,0,0-3,.62" transform="translate(-110.9 71.09)" fill="#fff"/><path d="M476.77,190.19a2.85,2.85,0,0,0-.49,1.43,3.06,3.06,0,0,1,.49-1.43" transform="translate(-110.9 71.09)" fill="#fff"/><path d="M458.81,56.61h0Z" transform="translate(-110.9 71.09)" fill="#fff"/><path d="M466.53,214.41h0a.84.84,0,0,0-.06.14.84.84,0,0,1,.06-.14" transform="translate(-110.9 71.09)" fill="#fff"/><path d="M460.13,54.24Z" transform="translate(-110.9 71.09)" fill="#fff"/><path d="M459.61,55.33l-.09.18.09-.18" transform="translate(-110.9 71.09)" fill="#fff"/><path d="M347.8,284.24l6.53,3.7c-.13-2,2.19-6.54,3.56-6.63l-5.07-3.15-5,6.08" transform="translate(-110.9 71.09)" fill="#fff"/><path d="M462.55,134.41a39.22,39.22,0,0,1-2.21,4.51,66.93,66.93,0,0,1,7.36.05c3.83.42,4-1.41,4.36-4a17.18,17.18,0,0,0,0-2.87,29.49,29.49,0,0,1-4.7,0c-2.29-.42-4-.18-4.84,2.4" transform="translate(-110.9 71.09)" fill="#fff"/><path d="M462.36,114c-1.26.78-1.53,1.26-1,2.53.94,2.14,1.89,4.28,2.83,6.4l6.4-1.06c-1.68-3.57-3.26-7-4.92-10.47a40.16,40.16,0,0,1-3.33,2.6" transform="translate(-110.9 71.09)" fill="#fff"/><path d="M454.65,103.93c4.3.93,7.72,2,11.21,5.62a23.43,23.43,0,0,1,5.91,10.68c1.74,6.36,4.23,12.66,1.34,19.53h4.37c3.61-8.6,3.23-17-.41-25.36-3.86-8.84-10.82-13.22-20.23-14.25-.71,1.23-1.43,2.46-2.2,3.78" transform="translate(-110.9 71.09)" fill="#fff"/><path d="M456.54,107.05c-.7-.75-2.08-.82-3.17-1.18-.33,1.08-.54,1.77-.75,2.49l4.26,2.2c-.1-1.52.21-2.93-.34-3.51" transform="translate(-110.9 71.09)" fill="#fff"/><path d="M376.8,225.93c5.76-4.46,11.37-9.16,17.34-13.32,4.39-3.05,9.3-5.35,13.91-8.1a65.28,65.28,0,0,1,19-7.95c.5-9.77,1-19.6,1.52-29.74-1.74-1.7-3.23.34-4.45,1.43-5.09,4.55-10.1,9.2-15,14-8.44,8.41-17.24,16.54-23.84,26.64-3.38,5.18-6.46,10.56-9.64,15.88a6.59,6.59,0,0,0-.46,1.63l.61.3c.31-.26.6-.54.92-.8" transform="translate(-110.9 71.09)" fill="#fff"/><path d="M447.29,113.27c2.8,2.28,4.68,3.78,3.13,9.15-.38,1.3-.68,3.15-.07,4.14,2.36,3.8,5.1,7.35,7.83,11.17,2.12-2.54,2.93-5.32,3.48-8.61,1.19-7.09-1.39-13.67-7.09-17.59-3.39-2.32-5.37-1.35-7.28,1.74" transform="translate(-110.9 71.09)" fill="#fff"/><path d="M298-20l3.47-1.13c2.36-.75,3.12-2.83,3.26-4.88a5.77,5.77,0,0,0-2.26-5.44A8.3,8.3,0,0,0,294-32.65a6.93,6.93,0,0,0-3.24,2.18,6.2,6.2,0,0,0-.3,6.88c1.52,2.75,4.15,3.35,7.55,3.56" transform="translate(-110.9 71.09)" fill="#fff"/><path d="M145.5,150.92c.31-1.8.65-3.31.8-4.85a2,2,0,0,0-.81-1.35,20.92,20.92,0,0,1-8.4-11.16c-2.41-7.53-4.45-14.75-.17-22.34,2.62-4.66,6.06-7.86,11.33-8.73,2-.33,4-.34,6.13-.5-.26-1.15-.49-2.19-.73-3.29-3.15.71-6.39,1.08-9.36,2.2-3.61,1.36-7.9,2.54-10.28,5.25-5.1,5.76-8.29,12.47-7.26,21,1.21,10,6.52,16.58,14.39,21.7a35.32,35.32,0,0,0,4.35,2.07" transform="translate(-110.9 71.09)" fill="#fff"/><path d="M151.85,193.64c-.15.37.18,1,.31,1.42,1,3.89,2.32,7.74,3.06,11.69,1.34,7.05,2.42,14.16,3.45,21.28.24,1.74.76,2.26,2.48,2.1a72.82,72.82,0,0,1,9.57-.42c8.95.38,17.92.79,26.85,1.55,5.27.45,10.5,1.54,15.72,2.45,3.9.68,7.78,1.53,11.67,2.3-4.68-2.2-9.6-3.85-14.09-6.29-7.4-4-15.52-5.2-23.48-7.1-5.78-1.38-11.54-2.8-17.35-4.05-2.29-.5-5.24-1.63-6.87-.67-2.94,1.71-3.33-.39-3.79-1.83-2.9-8.95-2.63-18.2-2.24-27.45,0-.9-.09-2.42-.58-2.64-4.14-1.87-8.38-3.54-12.6-5.2-3.1-1.22-6.23-2.36-9.35-3.51a4.68,4.68,0,0,1-3.37-4L155,165c1.38-10.33,2.7-20.25,4.1-30.81a46.84,46.84,0,0,1,10.48,15.31c1.65,3.77,3.16,7.61,4.78,11.41.42,1,.79,1.63,2.35,1.3,5.1-1.1,10.28-1.85,15.43-2.68a47.8,47.8,0,0,1,7.44-1c1.82,0,3.92.18,4.9,2.35a53.28,53.28,0,0,0,2.46,5.31c1.75,3,4,5.68,5.5,8.77,2.84,5.85,5.37,11.85,7.9,17.85,1.9,4.54,3.73,9.12,5.32,13.78,1.54,4.5,2.74,9.12,4.22,14.16.18-1.69.26-2.85.44-4,.48-3,1.53-6.07,1.4-9.07a60.91,60.91,0,0,0-5.18-21c-2.94-6.94-6.6-13.59-10.2-20.23a27.91,27.91,0,0,0-5.51-7.48c-3-2.7-6.71-4.58-9.9-7.11-1.9-1.51-3.62-1.08-5.54-.51-3.43,1-6.85,2-10.31,2.93-5.18,1.32-5.19,1.27-8.06-3.3a40.78,40.78,0,0,0-2.52-4q-6.85-8.59-13.84-17.08c-1.9-2.32-3.9-4.53-5.87-6.79l-1,.6c-.82,3.59-1.72,7.16-2.44,10.76s-1.14,7.3-1.9,10.91a66.25,66.25,0,0,1-2.13,7.3c-1.43,4.21-1.73,8.74-7,11-4.8,2.05-8.93,5.74-13.32,8.75-1.82,1.24-3.56,2.59-6,4.4l14.82,6.43c4.28,1.85,8.52,3.8,12.85,5.51,2.29.9,4.54,1.5,3.25,4.8" transform="translate(-110.9 71.09)" fill="#fff"/><path d="M417.32,138.65l2.24,2.16c3.05-2.68,5.94-5.24,8.92-7.87-.55-.8-1-1.46-1.58-2.33l-9.58,8" transform="translate(-110.9 71.09)" fill="#fff"/><path d="M272.22,66.87c3.48,0,6.09-2.77,6.07-6.52s-2.87-6.24-7.34-6.21c-2.55,0-4.82,3.29-4.76,6.86a6,6,0,0,0,6,5.87" transform="translate(-110.9 71.09)" fill="#fff"/><path d="M144.33,153.16c-1.32.1-2.28-2.7-3.66-.21-1,1.73.2,4.05,2.66,5.14.32-1.56.62-3.06,1-4.93" transform="translate(-110.9 71.09)" fill="#fff"/><path d="M176.14,107.5c3,3.68,7.07,6.46,10.81,9.47a30.27,30.27,0,0,0,22,7c7.27-.53,14.06-1.77,19.1-7a20.87,20.87,0,0,0,3.39.8,9,9,0,0,0,8.14-4.17c1.38-1.91,2.28-1.8,3.76.06a18.61,18.61,0,0,0,2.95,3.13c2.78,2.18,12.29,2,15.14,0,1.59-1.12,3.38-2,5-3.07a34.81,34.81,0,0,0,3.9-3.27c.91-.89,1.27-.92,2,.29a12.28,12.28,0,0,0,3.16,3.65,18.16,18.16,0,0,0,14.65,3c6.51-1.21,12.46-3.08,16.24-9.13a4.17,4.17,0,0,1,1-.92c1.74,1.53,3.14,3.35,5,4.21,2.16,1,4.7,1.2,7.07,1.73,1.64.36,3.31,1.07,4.91.92,5.75-.53,10.88-2.59,14.67-7.29,1.24-1.53,2.5-3,3.53-4.25,2.43,1.56,4.5,3.44,6.91,4.33,4.55,1.68,9.22,3.44,14,4,6.48.73,13,.69,19.48-1.53,5.1-1.75,10-3.53,13.93-7.35a2.58,2.58,0,0,1,2.38-.26c1.75.87,3.33,2.08,5,3.1,6.15,3.73,12.67,4.89,19.63,2.79,8.18-2.47,15.73-5.5,19.61-14.35a43.62,43.62,0,0,0,3.75-20.52A17.23,17.23,0,0,0,442.76,62c-2.36-2.57-4.55-5.3-6.88-8.05a4.1,4.1,0,0,1,.84-.65c4.57-2,6.26-5.74,6.52-10.5.36-6.37-6.1-13.33-10.52-15.41a34.35,34.35,0,0,0-11.25-3c-4.15-.38-8.4.32-13,.57a3.54,3.54,0,0,1,0-1.52C410.94,18.48,411,13.13,410.76,8a196.86,196.86,0,0,0-2.71-22.44c-1.12-6.64-2.63-13.25-5.76-19.32-3-5.87-5.81-11.86-11.74-15.58-5.76-3.61-15.41-5.36-21.17.62a49.62,49.62,0,0,1-3.86,3.31c-5.37-6.64-12.77-7.08-20.21-6.14-8.18,1-12.54,7.4-16.55,14.49-6.33-9.83-15.82-13.05-26.24-13.76s-19.84,2.3-26.46,11.37c-4.71-7.45-6.62-8.47-10.87-10.22-8.29-3.42-16.91-4.94-26-3.57-6.93,1-13.95,1.5-20.93,2.19a16.42,16.42,0,0,0-3.36.22c-2.9.91-5.77,2-8.6,3.08a16,16,0,0,0-10.21,15.35c.3,7.19,3.19,13.15,9.54,16.85,2.62,1.54,5.48,2.66,7.81,3.77,0,4.91-.22,9.65.05,14.35.4,7,.22,14.08,3.15,20.72.89,2,.78,4.45,1.36,6.62.35,1.28-.18,1.68-1.15,1.79a29.72,29.72,0,0,1-4.81.27c-8.39-.43-15.85,2.39-23.33,6A30.45,30.45,0,0,0,173.25,54a59.93,59.93,0,0,0-3.41,12.62c-1,5.37-1.49,10.83-2.11,16.25-.53,4.62.89,8.94,2.54,13.08s3.21,8.31,5.87,11.59m217.48-10c-2.68,4.23-6.74,6.16-12,6a75.75,75.75,0,0,0-14.34,1.07c-4.52.7-10.7-3.24-11.55-7.81a144.67,144.67,0,0,1-2.43-33.62c.25-5.3,1.37-10.55,1.71-15.84.28-4.24,2.3-7.36,5.78-9A34.13,34.13,0,0,1,371,35.79a76.86,76.86,0,0,1,10.94-.2c4.53.08,9.23,6.38,8.23,10.85a26.32,26.32,0,0,1-1,4.8c-1.32,3-4.11,3.92-7.1,3.95-2.54,0-5.08-.31-7.62-.44-1.06-.06-2.13,0-3.37,0-.05,1.13-.1,2.11-.17,3.43,3.34.57,6.57,1.2,9.83,1.65a9.69,9.69,0,0,1,7.57,13.65c-1.19,2.87-3.71,3.2-6.15,3.37-3.45.24-6.94,0-10.41.19-.54,0-1.36,1.14-1.48,1.85-.26,1.45-.41,3,1.87,3.24,3.95.36,7.9.84,11.83,1.39A26.41,26.41,0,0,1,390,84.86c5.75,2.34,6.58,7.94,3.58,12.68m26.86-67a19.17,19.17,0,0,1,11.26,1.95,9.73,9.73,0,0,1,5.68,10A5.35,5.35,0,0,1,435,46.12a15.52,15.52,0,0,1-6.57,1.36c-1.59,0-3-.71-4,1.12a4,4,0,0,0,.39,5.21A9.17,9.17,0,0,0,428,56.18c4.53,1.75,7.2,5.38,9.8,9.25,3.55,5.31,3.8,11.25,3.33,17.24-.33,4.11-2.6,7.64-5.26,10.62a29.2,29.2,0,0,1-16.39,9.36c-2.57.51-5.39-.1-8.06-.45a14.2,14.2,0,0,1-4.58-1.47c-6.29-3.29-9.86-10.81-6.13-17.94a5.08,5.08,0,0,1,4.84-2.86c3,0,5.94.11,8.9,0a8.41,8.41,0,0,0,6.67-3.63c1.74-2.32,1.38-4.51-1.15-6a53.3,53.3,0,0,0-5.55-2.52c-3-1.3-6.12-2.39-9-3.92-3.74-2-5.42-5.57-6.27-9.6-1-5-.19-9.74,1.2-14.55a8.08,8.08,0,0,1,4.88-5.28c4.69-2,9.38-4.21,15.24-4M331.44.44c.4-3.48,1.65-6.86,2.45-10.29.74-3.22,1.2-6.52,2.14-9.68,2.15-7.19,4.24-14.41,6.87-21.42,2.31-6.11,9.34-7.07,14.62-2.64,3.79,3.19,5.06,7.51,6.09,12a31.88,31.88,0,0,0,1.48,5.35c.4-1.46.8-2.93,1.19-4.4.53-1.95.76-4,1.64-5.81a38.52,38.52,0,0,1,4.27-6.52c2.44-3.14,6.06-3.2,9.39-2.61,6.73,1.18,10.12,6.57,12.16,12.29,2.1,5.88,2.93,12.24,4.24,18.4C399.4-8.23,400.87-1.63,402.06,5c1.07,6,.94,12-2.73,17.14-1.24,1.71-4,2.56-6.2,3.23-2.49.75-4.18-.78-5.65-2.9-4.29-6.17-5.17-13.28-5.93-20.46,0-.39-.1-.78-.15-1.16h-.24c-.38,2.84-.33,5.82-1.22,8.47a57.08,57.08,0,0,1-4,8.8c-1.44,2.69-3.36,4.07-5.43,5.55-5.85,4.22-9,.82-10.32-4.71-1.12-4.6-2.07-9.25-3.12-13.87a11.52,11.52,0,0,0-.67-1.58,11.06,11.06,0,0,0-1.12,2c-1.7,5.8-3.56,11.48-7.52,16.23s-11.5,4-14.61-.09c-1.47-1.94-2.09-4.9-2.21-7.45A85.11,85.11,0,0,1,331.44.43m-5.31,34.33A39.23,39.23,0,0,1,335,36a33.19,33.19,0,0,1,6.68,2.09c3.85,1.72,5.42,4.72,5.13,9,0,7.34-4.72,10.81-10.88,12-3.11.61-4.23,2.66-4.08,5.76.4,7.9.54,15.83.62,23.75a54.79,54.79,0,0,1-.63,8.19c-1.25,8.9-7.37,11-14.78,10.59-5.33-.31-7.3-3.14-7.66-8.76-.26-4-.82-7.89-.86-11.84-.07-7,.16-14,.27-21.08,0-.34.09-.68.07-1-.27-3.48-.27-3.43-3.77-3.53-2.44-.07-4.87-.3-7.3-.49a5.61,5.61,0,0,1-5-4.13c-2.13-6.9-1.86-13.34,5.29-17.22a30.94,30.94,0,0,1,10.17-3.24,157.39,157.39,0,0,1,17.89-1.41M275.1-21a68.94,68.94,0,0,1,3.46-11.76c2-5.21,5.55-9,11.24-10.33,2.84-.65,5.61-2,8.47-2.2,7-.61,12.65,2.42,16.57,8.08,3.42,4.92,5.06,10.73,6,16.67.84,5.14,1.51,10.31,2.42,16.62-1.08,4.56-1.91,10.26-3.85,15.53a24.18,24.18,0,0,1-7.82,10.77,15.77,15.77,0,0,1-5.32,2.31c-4.48,1.22-9.08,2.44-13.7,1.28-4.78-1.2-9-3-11.9-7.9a50.83,50.83,0,0,1-7.32-24.63c-.18-4.79.8-9.68,1.72-14.43m3.45,63.14a31.11,31.11,0,0,1,8,12.95c1.92,6,3.3,12.1,5,18.13,1.12,3.95,2.64,7.79,3.61,11.77,1.55,6.35,2.19,12.8.84,19.31a9.71,9.71,0,0,1-9.43,8c-6.33.32-8.07-1.57-9.88-7.06-1.18-3.6-2.13-7.28-3.06-11a2.08,2.08,0,0,0-2.27-1.87l-.14,0c-.8,0-1.6.18-2.38.27-.9,3.9-1.55,7.81-2.75,11.55a12.68,12.68,0,0,1-5.28,7.23,8.34,8.34,0,0,1-11.58-2.3,8.44,8.44,0,0,1-1.2-2.75c-1.43-5.09.24-9.87.87-14.76.42-3.25,1.11-6.47,1.83-9.68,1.42-6.37,2.82-12.74,4.44-19.06,1.37-5.35,3-10.61,4.58-15.91,1.12-3.87,3.86-6.23,7.33-7.8,3.07-1.4,9,.54,11.44,2.94M212.5-18.43c-3.9-.77-6.83-3.36-9.07-6.3-2.66-3.49-1.37-10.72,1.54-14.53s6.75-4.92,11.15-5.36c5.2-.51,10.36-1.5,15.56-1.85,3.94-.28,7.92.16,11.88.18,3.73,0,7.45-.16,11.18-.09,2.74.05,5.45.43,7.23,3,.22.33.84.39,1.27.57,5.59,2.34,5.66,8.07,4.4,12-2,6.3-6.79,9.44-12.87,10.87-2.08.49-4.2.82-6.74,1.3,0,4.67.17,9.71-.05,14.73a111.11,111.11,0,0,1-1.4,14.46A90.94,90.94,0,0,1,243,23.47c-1.41,4.16-6.25,7.07-9.88,5.7a20.75,20.75,0,0,1-6.61-4.54c-3.43-3.25-3.76-7.63-3.75-12.14,0-7.27-.22-14.54-.32-21.81,0-2.42,0-4.83,0-7.27-3.39-.62-6.67-1.19-9.94-1.84M175.25,76.82c.52-8.39.1-17,5.43-24.36,3-4.17,6.6-7.73,11.43-9.54,7.1-2.66,14.34-4.94,22-4.72,3.77.1,7.32.84,10.08,3.94,3.26,3.66,3.34,8.82-.2,12.22-3.8,3.64-8.11,5.87-13.6,5.53a25.21,25.21,0,0,0-7.53,1c-3.13.8-4.64,3.4-5.28,6.35a50.75,50.75,0,0,0,.72,23.44,4.64,4.64,0,0,0,2.72,3,58.22,58.22,0,0,0,11,1.24c2.56,0,4.91-3.21,4.83-5.89-.07-2.43-.23-4.85-.32-6.64-2.71-1.64-5.28-2.49-6.82-4.26-3.17-3.65-.7-10.77,3.79-12.7,5.78-2.49,11.88-2.18,17.9-2.61a37,37,0,0,1,4.93.28c4.86.3,7,1.89,8.33,6.09,1.09,3.5-.34,7.2-4,9.67-2,1.37-2.37,2.78-2.18,5.33a156.6,156.6,0,0,1-.12,17.06,36.8,36.8,0,0,1-1,5.3c-.92,4.93-7.93,5.58-10.61,2.5a101.3,101.3,0,0,1-8.45,6.11c-3.8,2.23-8.19,2.19-12.41,2a55.75,55.75,0,0,1-9.16-1.6,14.43,14.43,0,0,1-8.54-5.38c-2.8-3.6-6.26-6.73-8.7-10.55a22.9,22.9,0,0,1-3.88-13.48c.15-3.1-.56-6.26-.37-9.35" transform="translate(-110.9 71.09)" fill="#fff"/><path d="M156.76,92.13c.35,7.38,1.82,14.26,6.39,20.42,4.78,6.46,9.5,13,16.58,16.91a65.13,65.13,0,0,0,14,5.75,37.07,37.07,0,0,0,16.95.68c3.92-.73,8-.91,11.76-2.16,5.56-1.85,10.88-4.42,16.55-6.79,6.2,2.74,12.63,6.7,20.48,4.92,2-.45,4.28-.26,5.93-1.24,2.23-1.32,4-3.48,6.18-5.54,1.09.43,2.2.81,3.32,1.13,6.76,1.7,13.34,3.88,20.54,3.79a23.62,23.62,0,0,0,15.38-5.63c3.48.74,6.27,1.5,9.11,1.9,5,.71,9.79-.64,14.57-1.65,2.49-.53,5.6-1.17,7-2.93,1.7-2.14,2.6-1.58,4.26-.67,6.67,3.69,14,4.27,21.33,4.07,5.34-.15,10.67-1.41,16-2.37a26.45,26.45,0,0,0,12.69-5.85c1.11-1,3.22-1.1,4.8-1,2.08.19,4.07,1.14,6.13,1.6,6.12,1.36,12.26.58,18.3-.34,5.69-.86,10.34-4.36,15-7.56,3.76-2.59,7.4-5.36,9.94-9.38a44.93,44.93,0,0,0,6.7-31.39c-.58-3.95-1.24-7.87-4.85-10.4-.26-.18-.18-1.27.09-1.71,3.37-5.35,5.68-11,4.24-17.46a44,44,0,0,0-2.9-7.61C448,19.73,438.33,14.76,426,13.91a2.09,2.09,0,0,1-1.36-1.48c-.15-1.37.28-2.8.11-4.16-1.09-8.6-2.17-17.2-3.47-25.76a86.56,86.56,0,0,0-2.68-12.33,70.38,70.38,0,0,0-4.27-10C410.81-47.14,406-53.32,398.7-57.1a40.87,40.87,0,0,0-20.32-4.79c-3.56.11-7.09,1.13-10.65,1.6-.69.09-1.46-.44-2.19-.71-1.82-.67-3.67-2-5.43-1.9A68.53,68.53,0,0,0,348.46-61a65.6,65.6,0,0,0-8.64,2.94c-3,1.15-5.83,2.49-8.79,3.78-3.19-3.44-6-7.58-10.86-8.62a87.94,87.94,0,0,0-15.83-2.28c-9-.23-16.9,3.82-24.46,8.38-1.06.63-1.89,1.56-3.28.58a37.76,37.76,0,0,0-16.52-6.38,108.92,108.92,0,0,0-12.88-1.06,80.42,80.42,0,0,0-9,.86c-5.38.53-10.79.77-16.11,1.62-5.88,1-11.78,2.06-17,5.28a102.92,102.92,0,0,1-9,5.44c-4.83,2.31-7.44,6.44-9.24,11.07-5.15,13.32,1.46,31.46,15.36,35.48-.54,2.62-1.21,5.26-1.6,7.94a72.66,72.66,0,0,0-.34,17.62c.17,1.81-.46,2.57-2.4,2.89a41.56,41.56,0,0,0-8.9,2.48,49,49,0,0,0-8.48,4.62c-3.91,2.63-8.15,5.08-11.28,8.51a34.42,34.42,0,0,0-8.52,16.15c-.78,3.66-2.32,7.14-3.26,10.77A34,34,0,0,0,156,75.49c0,5.55.52,11.09.78,16.64m7.11-29.29a63.2,63.2,0,0,1,5.06-13.51C172.12,43.43,177,39,182.6,35.21s11.56-5.9,17.72-7.87c2.5-.79,5.29-.63,8-.91-.61-3.58-1.42-7.44-1.87-11.34a48.68,48.68,0,0,1-.2-8.62c.26-4.1.94-8.17,1.25-12.27.18-2.37-2.19-3.17-3.57-3.69-6.56-2.46-10-7.55-12.4-13.74-1.54-4-2.67-8-1.37-12.32.64-2.1,1-4.52,2.36-6.12a61,61,0,0,1,9.22-9.17c2-1.53,4.77-2,7.26-2.76,2.1-.61,4.29-.88,6.45-1.29,4-.76,8-1.67,12-2.22A161.48,161.48,0,0,1,245-59c6-.17,12.25-.18,18.12,1.05,5.63,1.17,10.07,5.16,13.49,10.14,2.57-3.5,6.61-4.92,10.56-6.39a46.51,46.51,0,0,1,10.2-3,46.92,46.92,0,0,1,11.48.22,55.89,55.89,0,0,1,11.57,2.62c2.12.76,3.86,2.72,5.68,4.25a32.18,32.18,0,0,1,2.7,2.9c4.15-4.73,9.78-7.21,15.7-8.49s12-2.9,18.12-.47a17.29,17.29,0,0,0,2,.84,5.16,5.16,0,0,0,2.55.33c2.53-.77,4.94-2,7.49-2.61,6.28-1.51,12.37-.06,18.28,2,6.8,2.33,10.74,7.46,12.93,14.29,1.68,5.22,3.91,10.25,5.64,15.46,1.2,3.59,2,7.3,2.9,11C415.49-10,416.59-5,417.51-.06a31.11,31.11,0,0,1,.73,8.11,112.58,112.58,0,0,1-2,11.24c3.08.22,5.88.6,8.69.6,6,0,11.77,1.13,16.74,4.66,5.49,3.9,8.94,9.06,8.2,16.28-.2,2-.31,4-.55,6-.43,3.66-2.92,5.91-5.64,8.08,6.55,5.24,8.2,12.55,8.19,20.18a80,80,0,0,1-1.93,17c-.94,4.24-4.11,7.58-7.41,10.32A101.41,101.41,0,0,1,431,110.78a21.87,21.87,0,0,1-15.61,2.69c-5.54-1-10.89-3.19-16.32-4.84-1.07-.32-2-.49-2.44,1.05a2.13,2.13,0,0,1-1.29,1.25q-7.87,2.4-15.79,4.66a54,54,0,0,1-18.09,2.2c-6.13-.34-13.51-2.33-18-5.43-2.89,1.84-5.57,3.87-8.53,5.38-6.28,3.21-12.91,3.4-19.6,1.43a32.54,32.54,0,0,1-6.82-2.54c-2.06-1.17-2.33,1.22-3.69,1.4-.89.12-1.61,1.22-2.5,1.72-7.74,4.39-16.05,4.82-24.53,3.25-2.08-.39-4-2.47-6-2.48s-4.12,1.76-6.28,2.33a35.88,35.88,0,0,1-19.15.11c-2.33-.65-4.54-1.72-6.83-2.51a3,3,0,0,0-2-.16c-2.21,1.13-4.28,2.54-6.48,3.69-5.47,2.84-11.15,5.11-17.39,5.33a101.82,101.82,0,0,1-14.19-.07c-4.57-.5-9.37-1.15-13.08-4.35a16.79,16.79,0,0,0-7.36-3.79c-.86-.2-1.41-1.53-2.19-2.24-5.5-5-9.23-11.23-12.24-18-3.3-7.45-3.08-15.33-3.45-23.22-.25-5.28,1.51-10,2.81-14.78" transform="translate(-110.9 71.09)" fill="#fff"/><path d="M375.9,203.44a85.5,85.5,0,0,0,1.61-9.69c.28-3.84-2.66-7.95-6.12-9.37-1-.41-2-1-3-1.48l-2.16,1.63c4.89,8.38,6.65,17.56,8,27,.56-2.69,1.17-5.37,1.67-8.07" transform="translate(-110.9 71.09)" fill="#fff"/><path d="M239.79,177a16.78,16.78,0,0,0-2-1.5c-2.6-1.54-5.32-1.1-7,1-3.39,4.28-3.46,9-.53,13.15l9.52-12.7" transform="translate(-110.9 71.09)" fill="#fff"/><path d="M226.25,180.31l5.79-8c-1.53-.88-3.4-2-5.4-3.15a41.68,41.68,0,0,0-2.9,3.05,2.48,2.48,0,0,0-.55,1.94c1,2.22,2.13,4.34,3.06,6.16" transform="translate(-110.9 71.09)" fill="#fff"/><path d="M262,137.88a86.74,86.74,0,0,1-11.21-1.73c-4.1-.9-8.1-2.2-12.55-3.44,7,12.63,13.56,25,22.62,35.85a64.79,64.79,0,0,1,5.4-3.71c4.05-2.27,8.23-4.3,12.27-6.58a3,3,0,0,0,1.4-2.36c-1.69-7.34-3.56-14.64-5.4-22-.58.16-.86.15-1,.3a14.79,14.79,0,0,1-11.51,3.7" transform="translate(-110.9 71.09)" fill="#fff"/><path d="M225,168.16,216.86,163l-.4.41c1.8,2.73,3.59,5.47,5.26,8,1.18-1.16,2.24-2.22,3.3-3.28" transform="translate(-110.9 71.09)" fill="#fff"/><path d="M310.65,130.85c-.4,7.42-.8,14.68-1.19,22-.08,1.44.39,2.24,2,2a16.33,16.33,0,0,1,4.3-.21c4.82.74,9.6,1.67,14.4,2.54l2.38.45c3.35-9.6,6.64-19,9.92-28.38-10.54,2.94-20.75,5.57-31.82,1.61" transform="translate(-110.9 71.09)" fill="#fff"/><path d="M411.24,152c1.25-.11,2.51-.17,3.75-.34,4.72-.66,9.41-1.69,14.14-1.92,3.08-.14,4.9.17,5.52-4.07.86-6,3.17-11.79,4.93-17.89-11.48,5.92-19.94,15.06-28.79,23.73l.45.49" transform="translate(-110.9 71.09)" fill="#fff"/><path d="M372.21,131.15c-5-.22-10.09-.43-15.1-1-4.1-.45-8.14-1.39-12.42-2.15,0,0-.24.6-.44,1.22L338,148.44c-.91,2.81-2,5.59-2.76,8.44a2.55,2.55,0,0,0,.55,2.23,20.65,20.65,0,0,0,3.4,1.5c4.4,2.1,8.78,4.22,13.65,6.58,12.36-13.23,25.31-27.1,38.27-41a23.49,23.49,0,0,0-5.54,1.75c-4.31,1.75-8.66,3.38-13.4,3.17" transform="translate(-110.9 71.09)" fill="#fff"/><path d="M233.62,202.1a46.14,46.14,0,0,1,13.53-21.2,8.61,8.61,0,0,1-2.3-1c-2.61-2.31-4.41-.74-6.09,1.23a41.54,41.54,0,0,0-3.63,4.71c-2.55,4.07-5.53,8.1-2.3,13.27a11.57,11.57,0,0,1,.8,3" transform="translate(-110.9 71.09)" fill="#fff"/><path d="M305.93,298.41a13.16,13.16,0,0,0,3.14-1.67,3.25,3.25,0,0,0,.5-2.5c-.06-.32-1.26-.66-1.92-.63a19,19,0,0,0-3.88.65,1.82,1.82,0,0,0-1.18,1.1,2.32,2.32,0,0,0,.56,1.84,12.22,12.22,0,0,0,2.77,1.22" transform="translate(-110.9 71.09)" fill="#fff"/><path d="M267.26,302c2.64,7.27,9.27,9.75,20.95,7.73,5.57-1,11.33-8.74,10.9-15.9-2.85-.34-5.78-.82-8.72-1a2.7,2.7,0,0,0-2.2,1.36c-.91,3.13-2.75,4.94-6,5.3-3.58.39-7.2,3.07-10.55-.36l-4.4,2.86" transform="translate(-110.9 71.09)" fill="#fff"/><path d="M315.75,284.25l-10.16,1.07V291l10.67-2c-.19-1.73-.35-3.27-.51-4.75" transform="translate(-110.9 71.09)" fill="#fff"/><path d="M239.85,272.57c-2.81,1.05-3.77,3.8-2.26,6.48,2.21,3.93,5.75,6.1,10,5.93,3.82-.16,8.33-.14,9.39-5.67a6.72,6.72,0,0,1-1.43-1.28c-1.21-1.79-2.25-1.95-4.16-.62-2.8,1.93-3.78,1.58-5.75-1.29a38.09,38.09,0,0,1-2.33-4.65c-1.16.36-2.34.68-3.48,1.1" transform="translate(-110.9 71.09)" fill="#fff"/><path d="M371.9,241.26c-2.13-.36-3.79-.89-5.4-.76-.5,0-.79,1.94-1.27,2.94-.34.7-1,1.26-1.25,2-.39,1.32-1,2.82-.65,4,.25,1,1.63,1.81,2.7,2.27.38.17,1.59-.78,1.92-1.46,1.35-2.77,2.5-5.63,3.95-9" transform="translate(-110.9 71.09)" fill="#fff"/><path d="M247.46,276.44c4.86-1.37,4.93-1.9,1-5.93l-3.13,1,2.13,4.93" transform="translate(-110.9 71.09)" fill="#fff"/><path d="M136.83,150.88a7.89,7.89,0,0,0-.88,9.93,2,2,0,0,0,2.57,1.1,2.11,2.11,0,0,0,.52-.31c.9-.53,1.9-.88,3-1.36-3.65-2.64-4.22-4.54-2.76-10.42-1.06.45-1.93.56-2.4,1.06" transform="translate(-110.9 71.09)" fill="#fff"/><path d="M385,264.19l-2.24,8.53c.58.51,1.3,1.06,1.93,1.69s1.15,1.37,1.77,2c2.23,2.28,2.2,3-.14,5.25.7-.25,1.78-.3,2-.79a67.38,67.38,0,0,0,4-8.62c.39-1.07.13-3.1-.61-3.73a54.57,54.57,0,0,0-6.76-4.33" transform="translate(-110.9 71.09)" fill="#fff"/><path d="M451.83,257.61c1,4.92,2.33,9.38,3.57,13.88.71,2.6,0,3.26-2.56,2.51-1.31-.38-2.55-1-4-1.54a7.21,7.21,0,0,0-.15,1.32A18.29,18.29,0,0,1,445,286.72c-4.92,6.34-11.24,11.2-19.13,13.08a24.82,24.82,0,0,1-11.08.2c-3.2-.76-6-3.31-8.95-5.08l.32-.6c-.88.37-1.75.74-3.24,1.35,2.18,2.05,4,3.9,6,5.61,6.26,5.43,13.79,4.78,21.19,4.23,5.76-.44,10.62-3.57,15.57-6.28,7.07-3.88,11-10.36,13.3-17.75,2.56-8.41-1-15.55-6.05-22.07a18.85,18.85,0,0,1-1.13-1.81" transform="translate(-110.9 71.09)" fill="#fff"/><path d="M394.66,245.55c6.31.16,12.63.6,18.94.92,0-.13.07-.26.11-.4-3.54-1.95-7.3-3.6-10.56-5.95-4.2-3-8.17-4.39-13-1.52a20.56,20.56,0,0,1-7.39,2.91c-3.05.42-4.89,2.23-6.85,4,6.24,0,12.5-.12,18.76,0" transform="translate(-110.9 71.09)" fill="#fff"/><path d="M425,279.37c2.43-4.32,1-11.9-1.71-14.33-.34.31-.65.65-1,.93-2.69,2.17-2.77,2.63-.85,5.4a4.84,4.84,0,0,1-1.17,6.76,5.09,5.09,0,0,1-1.47.7,22.54,22.54,0,0,1-2.7.4c-.44,1.84-.88,3.66-1.36,5.65,4.62.7,7.95-1.42,10.25-5.51" transform="translate(-110.9 71.09)" fill="#fff"/><path d="M155.57,224.53c-.1-.64-.19-1.19-.26-1.75-.42-3-1.53-3.46-4-1.84A11,11,0,0,0,146,231.89c1,7.34,3.74,10.84,11.82,11.78,0-2.65,0-5.17-3.17-5.88a3.07,3.07,0,0,1-1.2-.85c-1.91-1.71-3.62-4-2.81-6.4s1.23-5.82,4.95-6" transform="translate(-110.9 71.09)" fill="#fff"/><path d="M412.25,289.48c1.07.17,1.8.26,2.52.41a16.86,16.86,0,0,0,15.41-4.43c5-4.55,6-10.63,5.58-17.06a2.14,2.14,0,0,0-1.09-1.4c-3-1.5-6.1-2.9-9.87-4.68,4.63,6.63,5.78,13.17,1.39,19.48A12.3,12.3,0,0,1,413.75,287l-1.5,2.49" transform="translate(-110.9 71.09)" fill="#fff"/><path d="M413.66,233.3c2.6,0,3.54-.82,4.11-3.23,1.32-5.48,2.91-10.9,4.5-16.76-15.7,6.45-31.24,12.24-41.52,27.1.7-.25,1.05-.4,1.41-.51,5.77-1.9,11.45-4.24,17.34-5.56a62.86,62.86,0,0,1,14.16-1" transform="translate(-110.9 71.09)" fill="#fff"/><path d="M437.25,220.23a1.58,1.58,0,0,0,1.28.78c1.61-.13,3.2-.55,4.81-.63a2.7,2.7,0,0,0,2.72-2.25c1.14-3.55.16-7-.2-10.49-.35-3.27-2.3-5.29-4.59-7.37l-4.95,3.19a21.8,21.8,0,0,1,1.79,3.2A12.27,12.27,0,0,1,437,217.18c-.42.72,0,2,.28,3" transform="translate(-110.9 71.09)" fill="#fff"/><path d="M474.87,201q-.42-5.33-.77-9.71c-1.81-.21-3.42-.07-4.78-.61-2.43-1-4.67-2.41-7.05-3.51-4.73-2.18-9.49-4.27-13.75-6.18-1.85,2.13-3.35,4-5,5.72-3.95,4.1-7.94,8.18-12,12.16-.59.58-2.31,1.06-2.52.79-1.8-2.3-3.66-1-5.42-.23-6,2.76-12,5.47-17.9,8.5a119.92,119.92,0,0,0-27.23,19.39c-1.89,1.77-3.61,3.87-3.47,6.52,3.71-3,7.35-6,11.11-8.86a79,79,0,0,1,8.27-5.78c6.13-3.6,12.31-7.16,18.65-10.38a40.74,40.74,0,0,1,10.29-3.61c2-.41,4.38.59,6.59,1l-.95-.43c1.33-.86,2.71-1.67,4-2.61,4-3,8.19-5.8,12-9,2.78-2.36,5-3.87,8.88-1.8,6.17,3.26,12.79,5.67,19.23,8.4a9.35,9.35,0,0,0,1.82.3" transform="translate(-110.9 71.09)" fill="#fff"/><path d="M483.43,155.11c-2-1.33-4.73-1.64-7.17-2-.68-.09-1.57,1.34-2.37,2.07a6.56,6.56,0,0,0,1.68,1.38,5.78,5.78,0,0,1,3.86,3.81c.4,1.34.47,2.77.78,4.13,1.15,5.12-1.81,12.82-6,15.83a2,2,0,0,0-.62,1.74c.57,2,1.35,3.84,2.1,5.89,6.66-1.76,11-6.14,13.73-11.85a16.68,16.68,0,0,0-6-21" transform="translate(-110.9 71.09)" fill="#fff"/><path d="M464.52,206.15c-.25-2.21-.64-5.12-2.09-6.33-2.87-2.42-6.52-3.87-10.16-5.9,1.48,3,2.57,5.44,3.9,7.78,3.13,5.48,3.77,13.18,0,18.62,2.39,1,4.38.1,6-2.44a17.23,17.23,0,0,0,2.35-11.73" transform="translate(-110.9 71.09)" fill="#fff"/><path d="M447.53,204.77c.51,1.58,1,3.13,1.56,4.8l7-1.37-2.21-6.69-6.38,3.26" transform="translate(-110.9 71.09)" fill="#fff"/><path d="M454.85,218.34q.84-3.41,1.7-6.81l-.71-.16-1.77,6.78.78.19" transform="translate(-110.9 71.09)" fill="#fff"/><path d="M419.25,275.83a4,4,0,0,0-1.32-4.76c-2.35,1.67-2.17,4-1.68,6.91,1.14-.77,2.6-1.23,3-2.15" transform="translate(-110.9 71.09)" fill="#fff"/><path d="M195.87,313.76c.9-1.78,1.84-3.75,2.86-5.67s2.09-3.83,3.24-5.94c-2.63-4.75-3.13-7.82-1.8-10.73a16.11,16.11,0,0,0-1.84-1.08,14.38,14.38,0,0,0-2-.55c-4.11,7.94-7.51,15.82-.44,24" transform="translate(-110.9 71.09)" fill="#fff"/><path d="M218.7,311.9c-1.4-.28-2.93,0-4.28-.38-5.09-1.46-5.07-1.53-6.4,3.58-.06.24,0,.51-.08.75-.63,1.84-1.28,3.69-2.06,5.92,4.63,1,9.32,3.27,14.37,1.47,0-3.44.07-6.7-.06-10,0-.5-.9-1.27-1.49-1.38" transform="translate(-110.9 71.09)" fill="#fff"/><path d="M237.52,305.8a6.81,6.81,0,0,0-3.68.4c-1.43.74-2.45,2.25-3.85,3.06-1.67,1-1.8,2-1.15,3.68.9,2.32,1.48,4.76,2.23,7.24,8.25-4.83,12.79-9.51,13.34-13.25-2.3-.39-4.58-.89-6.89-1.13" transform="translate(-110.9 71.09)" fill="#fff"/><path d="M213.18,287.45c.08-.18.41-.25.6-.41A102.81,102.81,0,0,1,232,274.35c4.6-2.56,9.07-5.59,14.7-6.19A3,3,0,0,0,245,267a66.62,66.62,0,0,0-8.47-.5A31.15,31.15,0,0,0,221,271.2a70,70,0,0,0-10.34,7.35c-3,2.7-5.59,3-9.17,1.61-4.56-1.77-9.36-2.93-14.5-4.49l-9.12,20.65a12,12,0,0,1-1.71-2.41c-.46-1.4-.67-2.87-1-4.3-1.46-5.9-2.89-11.8-4.47-17.66a3.23,3.23,0,0,0-2-1.85c-3.9-1.16-7.91-1.94-11.76-3.22a47.87,47.87,0,0,1-6.66-3.38c0-.27,0-.53,0-.8l17.8-7.77c-.52-4.88-1.1-10.42-1.74-16.45,5.95,1.84,9.82,6.09,13.86,10.18a85.58,85.58,0,0,1,9.06-4.6,38,38,0,0,1,9.16-2.11c1.35-.15,2.81,1,4.26,1.45,1.09.32,2.27.28,3.35.62,5.74,1.8,11.6,3.34,17.15,5.63,4,1.63,7.53,4.3,11.27,6.52,2.25,1.34,4.48,2.7,6.79,4.09-.48-4.25-3.63-5.5-6.74-6.93-6.53-3-13-6.08-19.48-9.2-5-2.38-9.84-4.75-15.61-4.45-3.77.2-7.58-.43-11.36-.36-1.31,0-2.57,1.16-3.91,1.57-1,.31-2.37.72-3.24.33-3.47-1.58-6.69-3.78-10.23-5.13s-7.11-1.83-11.34-2.86c.49,5.36.88,9.9,1.32,14.44.14,1.37,0,2.31-1.6,2.82a14.78,14.78,0,0,0-4.05,2.3c-3.08,2.3-6.07,4.73-9.13,7.07-2.2,1.68-4.46,3.29-7.16,5.28,6.78,3.18,12.92,6,19,8.95,1.5.73,3.32,1.55,4.11,2.86,1.19,2,1.61,4.44,2.34,6.7,1.38,4.28,2.41,8.72,4.21,12.8,1.72,3.88,4.24,7.38,6.57,11.34a17.2,17.2,0,0,0,1.64-2c2.95-5.32,5.9-10.65,8.78-16,.93-1.75,1.81-3.59,4.16-3.13,4.72.94,9.4,2,14.1,3.06,3.53.78,7.32,2.7,9.5-2.31" transform="translate(-110.9 71.09)" fill="#fff"/><path d="M147.91,255.13c-14.37-8.38-14.12-15.76-11.78-29.2,1.19-6.82,11.56-16.18,17.35-15.08-.44-2.61-.86-5.13-1.28-7.63a6.27,6.27,0,0,1-1.77.69c-7.86.52-12.75,5.61-16.26,11.87-4.06,7.23-4.7,15.22-3.34,23.51,1.16,7,4,12.69,10,16.62,3.36,2.23,4.09,2.16,7.1-.77" transform="translate(-110.9 71.09)" fill="#fff"/><path d="M155.13,226.24c-.3-.11-1,.41-1.3.82-2.78,3.7-1.38,7.81,4,10.32-.57-3.54-1-6.69-1.62-9.82a2.06,2.06,0,0,0-1.11-1.32" transform="translate(-110.9 71.09)" fill="#fff"/><path d="M391.08,281.38l-3.32,4.16a3.42,3.42,0,0,0,.67,1.19c5.51,4.73,10.37,3.28,14.4-2.08,1.13-1.5,2.7-3.8.82-6.1-.93-1.14-1.91-2.23-2.56-3-1.24,1.54-2.2,3.57-3.78,4.48s-4,.9-6.23,1.32" transform="translate(-110.9 71.09)" fill="#fff"/><path d="M413.3,276.49c-.59.32-.72,1.12-1.19,1.56-1.42,1.33-3,2.55-4.48,3.77-.58.46-1.65.68-1.8,1.21-.73,2.52-2.24,4.06-4.39,5.6a11.24,11.24,0,0,1-13.6,0c-2.79-2-3.58-2.1-6.72.11a15.38,15.38,0,0,0,17.2,6.78c11.21-3.47,14.83-7.88,15-19" transform="translate(-110.9 71.09)" fill="#fff"/><path d="M274,289.54l-7.38-2.85c-.8,1.33-1.35,3.4-2.67,4.25a65.75,65.75,0,0,1-8.93,4.25c-.73.32-1.62.25-2.35.56a21.37,21.37,0,0,1-11,1.41c-6.06-.8-11.29-3.25-13.84-9.43-.88-2.14-1.48-4.4-2.46-7.38-1.4,2-3.26,3.52-3.33,5.08-.21,4.93,2.44,9.1,5.34,12.66,2.47,3,6.41,4.54,10.28,5.13a64.46,64.46,0,0,0,13.45.93,45.76,45.76,0,0,0,12.38-2.69c5.53-2,8.88-6.36,10.55-11.92" transform="translate(-110.9 71.09)" fill="#fff"/><path d="M395.23,270.9c-.92,2.75-1.87,5.57-2.86,8.51,3.2.59,4.85,0,5.5-2.18,1.17-3.86.78-4.68-2.64-6.33" transform="translate(-110.9 71.09)" fill="#fff"/><path d="M369,289.14c3-.46,6-1.08,9.41-1.72l-3.5-6.51-8.73,2.44A12.16,12.16,0,0,1,367,287c-.12,1.76.57,2.36,2,2.13" transform="translate(-110.9 71.09)" fill="#fff"/><path d="M312.85,306.7c-4.3,4.42-11.09,3.7-14.94-.07l-7.31,4.89c.3.46.69,1.17,1.18,1.8,2.18,2.81,5.41,3.1,8.55,3.71,8.1,1.56,15.09-.5,21.08-6.55-2.08-1.38-4.08-2.54-5.87-4-1.12-.89-1.76-.78-2.69.18" transform="translate(-110.9 71.09)" fill="#fff"/><path d="M285.24,312.2a36.11,36.11,0,0,1-11.12-.54c-4.39-.85-7-4.28-8.73-8.54l-3.8,1.8c5.3,11.92,16.62,15.7,28.9,10-1-2.37-2.46-3.09-5.25-2.75" transform="translate(-110.9 71.09)" fill="#fff"/><path d="M453.71,222.62a29.55,29.55,0,0,0-13.93-.05c-3.31.77-3.86.12-5.51-2.94-2.26-4.18-4.82-8.2-7.33-12.24a2.1,2.1,0,0,0-1.7-.83,41.28,41.28,0,0,0-7.5,2,136.35,136.35,0,0,0-27.48,15.54c-3.95,2.92-8.44,5-11.81,8.87-2.79,3.18-4.94,6.43-5,11.13a37.76,37.76,0,0,0,3.56-3c3.12-3.32,5.93-7,9.25-10.06a58.26,58.26,0,0,1,10.61-8.22,168.25,168.25,0,0,1,17.05-8.11,52.7,52.7,0,0,1,9.15-2.58,2.57,2.57,0,0,1,2.25,1.1c2.06,4.84,4.14,9.68,5.75,14.68.57,1.78.88,2.23,2.71,1.93,4.86-.79,9.77-1.3,15.16-2a14,14,0,0,1-.87,1.94c-2.67,3.48-5.29,7-8.07,10.38-1.7,2.07-3.4,3.92-2.12,7,2,4.84,3.86,9.77,5.88,14.61.46,1.12,1.42,2,2,3.08.25.48.31,1.56.07,1.7a2.42,2.42,0,0,1-2,.27c-3.26-1.68-6.42-3.57-9.68-5.25-2.9-1.49-5.86-2.84-8.85-4.14a2.16,2.16,0,0,0-1.85.23,43.68,43.68,0,0,0-4.68,4.24c-2.36,2.54-4.48,5.32-6.9,7.82-1.11,1.15-2.7,2.4-3.57-.47-.15-.49-.77-.86-1.23-1.2-2.4-1.84-4.78-3.69-7.22-5.47-5.31-3.88-10.57-7.85-17-9.74-3.34-1-6.68-2-10.07-2.87a2.7,2.7,0,0,0-2.28.91,47.75,47.75,0,0,0-3,4.88c7.5,2.38,15.13,4.17,22,8.19a69.25,69.25,0,0,1,18.83,15.62c2.06-2.81,3.76-5.38,5.71-7.74,2.82-3.41,5.79-6.72,8.78-10,1.37-1.5,2.7-2.36,5-1,3,1.72,5.89,3.91,9.64,3.79.4,0,.84.66,1.25,1,1.88,1.69,3.93,2.87,6.59,2.42a2.24,2.24,0,0,1,1.38.31c1.93,1.12,3.82,2.29,5.72,3.45l.47-.47c-.92-3.18-1.64-6.44-2.82-9.52-1.37-3.62-3.22-7.05-4.68-10.63-.63-1.54-2.74-2.72-1.39-4.86,3-4.8,5.95-9.66,9.12-14.36,1.91-2.84,4.21-5.42,6.15-7.88-1.34-.17-2.64-.27-3.92-.55-.6-.13-1.1-.76-1.7-.91" transform="translate(-110.9 71.09)" fill="#fff"/><path d="M371.07,268.25c-3.89,2.52-7.71,2.3-11.31-.81l-6.93,5.5A26.11,26.11,0,0,0,355,276.5c3.15,3.86,12.65,6.75,17.72,2.77,1.8-1.41,3.62-2.81,5.29-4.38,2.84-2.69,3.85-6.25,4-10.05,0-.63-.87-1.58-1.56-1.9-1.84-.86-3.8-1.44-5.89-2.2.93,3.57-.85,5.81-3.46,7.5" transform="translate(-110.9 71.09)" fill="#fff"/><path d="M429.84,180.9c-.2,5.11-.57,10.25,1.06,16.22,2-2.24,3.52-4,5.07-5.68,3.61-4,7.2-8,10.87-12,.52-.56,1.7-1.17,2.21-.94,5.29,2.41,10.51,5,15.75,7.5,1,.5,2.07.92,3.54,1.56-3.55-8.37-6.82-16.13-10.16-23.85-.58-1.35-.55-2.2.71-3.15a33.51,33.51,0,0,0,4.62-4.21c2.94-3.22,5.75-6.58,9.09-10.43-1.68,0-2.49,0-3.29,0-4.43.32-8.84.77-13.27.94a9.24,9.24,0,0,1-4.73-1c-.77-.44-.83-2.14-1.24-3.26-.09-.22-.35-.36-.47-.58-1.81-3.23-3.56-6.49-5.44-9.67a31.58,31.58,0,0,0-2.65-3.34l-.84.3c-.81,4.1-1.59,8.21-2.45,12.3-.62,3-1.28,5.93-2.13,8.84-.14.5-1.25.93-2,1-5.45.57-10.91,1-16.37,1.58-2,.21-4,.66-6.68,1.12,5.58,3.22,10.45,6.07,15.35,8.87,2.85,1.62,5.72,2.84,4.46,7.37-.93,3.34-.91,7-1.05,10.5m-5.6-25.33c4.12-.31,7.63-.72,11.15-.78,2.6,0,3.91-1.3,4.55-3.67.74-2.75,1.52-5.48,2.3-8.22.22-.77.48-1.53.94-3a17.57,17.57,0,0,1,1.6,2.37c1,2.48,1.92,5,2.84,7.52a2.79,2.79,0,0,0,3.12,2.12,87.86,87.86,0,0,1,9.17.75c-1.09,1.27-1.91,2.34-2.84,3.31-1.21,1.26-2.5,2.45-3.77,3.65s-1.59,2.65-.73,4.49c2,4.19,3.7,8.5,5.66,13.09l-10.86-5.35L435.91,185l-1.07-.18a9.07,9.07,0,0,1-.95-2.81c.05-5.55.31-11.1.35-16.66a3,3,0,0,0-1.37-2.15,25.06,25.06,0,0,1-8.62-7.59" transform="translate(-110.9 71.09)" fill="#fff"/><path d="M471.4,173.15l-.61-.22c.53,1.87,1.07,3.73,1.68,5.85,5.79-4.07,6.64-12.32,4.93-17.54-.43-1.33-2.32-2.5-3.78-3-.81-.29-2.14.94-3.69,1.72,1.57.78,2.55,1,3.14,1.63s1.55,1.9,1.35,2.62c-.81,3-2,6-3,9" transform="translate(-110.9 71.09)" fill="#fff"/><path d="M177.23,135.27a44.46,44.46,0,0,1-3.88-2.6c-1.29-1-2.4-2.31-3.84-3.73l-3.34,4.44,5.25,5.85,5.81-4" transform="translate(-110.9 71.09)" fill="#fff"/><path d="M246.91,187.47c2-2.61,4-5.07,5.79-7.64.3-.43,0-1.32,0-1.28l-7.8,7.28,2,1.64" transform="translate(-110.9 71.09)" fill="#fff"/><path d="M241.83,196c-.05,0-2.63-.09-3.13-.23s-1.68,4.76-1.86,5.36c0,.16-.07.31-.11.47-.32,1.31-.63,2.63-.95,3.94-.16.65-.35,1.3-.5,1.95s.07.85.57.75l.19,0a1.93,1.93,0,0,1,1.36,0,1.86,1.86,0,0,0,1.39,0c.51-.19.67-2,.86-2.49s.25-.72.36-1.08c.26-.81.54-1.63.75-2.44s2.1-6,1.61-6.06c-.3,0-.55-.16-.54-.2" transform="translate(-110.9 71.09)" fill="#14a9e1"/><path d="M458.09,140.89a2.67,2.67,0,0,1-1.91-1.06c-1.65-2.64-2.92-5.54-4.75-8-3.35-4.57-6.18-9.71-11.62-12.34L433.69,125l2.1,3.36,2.38-1.47a4.43,4.43,0,0,1,6.19,1,.6.6,0,0,1,.09.13c3.25,5.34,6.29,10.82,9.43,16.26,6.91,2,14.12-2.55,21.94.09-2.35,3.22-4.29,6.28-6.63,9s-5.18,5.11-7.75,7.69c-.44.44-1,1.3-.86,1.7,1.57,4,3.29,7.92,5,11.87,2,4.67,3.91,9.34,5.93,14.16l2.2-.1c-3-8.46-5.86-16.71-8.75-24.93l16-21.45a22.34,22.34,0,0,0-3.53-.73c-6.44-.27-12.88-.42-19.32-.71" transform="translate(-110.9 71.09)" fill="#fff"/><path d="M336.46,283.1c1.27,5.53,4.7,6.6,10,3.32l-4.35-6.6-5.62,3.28" transform="translate(-110.9 71.09)" fill="#fff"/><path d="M446.29,246.83a.33.33,0,0,1,.06-.19c1.33-2.41,2.59-4.91,4-7.31-1.37,2.4-2.63,4.9-4,7.31a.33.33,0,0,0-.06.19" transform="translate(-110.9 71.09)" fill="#fff"/><path d="M333.6,298.42c8.56,2.4,17.61.8,20.57-8.23-3.17-1.6-5.86-3.63-9.39-.54a5.39,5.39,0,0,1-6.81-.18,44.9,44.9,0,0,1-4.56-4.89,50.57,50.57,0,0,1-5.56,3c-2.18.87-2.38,2.33-1.72,4.14a10.45,10.45,0,0,0,7.47,6.68" transform="translate(-110.9 71.09)" fill="#fff"/><path d="M301.91,159.37v-2.65l-7.55-.6-1.24.08c.15,1.57.27,2.87.39,4.23l8.4-1.06" transform="translate(-110.9 71.09)" fill="#fff"/><path d="M254.24,264.14a2.09,2.09,0,0,0-.2-.22l.24.31v0l0-.07" transform="translate(-110.9 71.09)" fill="#fff"/><path d="M465.46,200l3.1,1.18-3.1-1.18Z" transform="translate(-110.9 71.09)" fill="#fff"/><path d="M339.42,275.54c.21.57.58,1.53,1,2.76,3.2-2.06,6.13-4,9.1-5.84,1.38-.85,1.61-1.73.48-2.94a15.78,15.78,0,0,1-1.06-1.38l-.2.11-9.36,7.29" transform="translate(-110.9 71.09)" fill="#fff"/><path d="M157.61,111.08c-1.05-3.92-2.33-4.6-5.86-2.94a17.55,17.55,0,0,0-3.85,2.53c-3.92,3.31-6.61,9.17-4.14,14.35,1.3,2.72,2.93,5.28,4.4,7.92l.88-.45a13,13,0,0,1,.62-3.08,10.76,10.76,0,0,0,0-9.46c-1-2.09-.07-3.81.92-5.53,1.57-2.71,4.25-3.13,7-3.34" transform="translate(-110.9 71.09)" fill="#fff"/><path d="M184.24,138.46c-2.59-.18-5-.69-7.32-.41-2.75.34-3.7,3.74-2,6,.59.79,1.15,1.59,1.72,2.39,1.5,2.13,3,4.26,4.79,6.84-.32-3.1-1.07-5.55-.66-7.77s2-4.27,3.43-7.07" transform="translate(-110.9 71.09)" fill="#fff"/><path d="M192.86,186.19a93.86,93.86,0,0,0,8.24,9.35c3.41,3.62,7,7.09,10.41,10.69,3,3.17,6.06,6.33,8.85,9.7,2.39,2.89,4.42,6.07,6.61,9.12-4-11.76-26.3-41.32-39.6-48.85,1.8,3.35,3.3,6.93,5.49,10" transform="translate(-110.9 71.09)" fill="#fff"/><path d="M196.27,148.67,186,141c-3.08,3.22-4.3,5.4-2.55,11.44l12.78-3.77" transform="translate(-110.9 71.09)" fill="#fff"/><path d="M153.62,121.08c.6-.18,1.61.4,2.18.92,2.65,2.45,5.21,5,7.81,7.51l2.9-4.12c-1.78-3.13-3.59-6.32-5.41-9.5-1.28-2.21-3.4-3-6.54-2.12-2.22.64-3.06,2.67-3.2,4.8-.09,1.32-.36,3.26,2.25,2.5" transform="translate(-110.9 71.09)" fill="#fff"/><path d="M350.41,169.67c-2.5-2-5.2-3.7-7.7-5.47l-2.58,3.63,10.13,6.22c1.12-1.11,2.22-2.74.15-4.38" transform="translate(-110.9 71.09)" fill="#fff"/><path d="M193.71,177.72c6.62,6.93,13.29,13.8,19.65,21a100.11,100.11,0,0,1,8.21,11.4c1.85,2.79,3.35,5.81,5,8.73l.41-.32c-.53-1.45-1.1-2.88-1.58-4.35-1.84-5.63-3.48-11.34-5.52-16.89-1.36-3.68-3.76-7-4.85-10.76-2.44-8.27-8.1-14.67-11.8-22.19a1.68,1.68,0,0,0-1.61-.43c-4.08,2.73-8.11,5.54-12.14,8.37-1.37,1-1.19,1.72.26,2.56a17.4,17.4,0,0,1,4,2.92" transform="translate(-110.9 71.09)" fill="#fff"/><path d="M310.06,157.25v1.91c1.26.45,2.35.89,3.47,1.22,4.17,1.22,5.5.44,5.23-3.13Z" transform="translate(-110.9 71.09)" fill="#feec36"/><path d="M197.24,233.23c-7.7-.93-15.46-1.47-23.21-1.94-2.55-.16-5.15.44-7.43.67l16.31,6.78c1.4-1.84,3.68-2.14,6.42-1.58a49,49,0,0,0,7.16.55c2.89.15,5.86-.12,8.65.48a53.21,53.21,0,0,1,9.73,3.33c4,1.7,7.76,3.75,11.65,5.61s7.63,3.56,11.34,5.29c-1.33-3.19-2.6-6.26-3.92-9.31-.23-.54-.55-1.27-1-1.44-4.59-1.71-9.1-3.78-13.84-4.84-7.2-1.6-14.54-2.71-21.86-3.6" transform="translate(-110.9 71.09)" fill="#fff"/><path d="M208.52,216.38c3.22,3,6.19,5.74,8.75,8.16-2.86-2.84-5.76-5.56-8.75-8.16" transform="translate(-110.9 71.09)" fill="#fff"/><path d="M205.57,210.68c8.13,5.93,14.61,13.52,22.12,20.26a7.84,7.84,0,0,0-.7-1.46c-.74-1-1.68-1.85-2.31-2.89-5.24-8.62-12-15.92-19.15-22.88a12.52,12.52,0,0,0-2.47-2.24q-6.9-3.65-13.93-7.07c-2.11-1-4.35-1.77-6.94-2.8,8,6.61,15.41,13.26,23.38,19.08" transform="translate(-110.9 71.09)" fill="#fff"/><path d="M201.73,245.41c-2.09-.28-3.3.23-4.1,2.13-1.32,3.1-2.89,6.11-3.94,9.3-.56,1.68-2.16,3.55-.5,5.46a84.49,84.49,0,0,1,44.9-.7l.18-.62c-3.53-2.17-7-4.47-10.6-6.49a73.55,73.55,0,0,0-25.94-9.08" transform="translate(-110.9 71.09)" fill="#fff"/><path d="M402.8,297.33c.1.11.2.22.31.36l.43.53-.43-.53c-.11-.14-.21-.25-.31-.36" transform="translate(-110.9 71.09)" fill="#fff"/><path d="M385.67,182.19c1.35-1.91,2.64-3.57,3.76-5.35,2.8-4.42,3-4.37-.28-7.91-.88-1-1.88-1.83-2.84-2.76l-7.81,7.26c3.91,1.78,6.63,4.34,7.17,8.76" transform="translate(-110.9 71.09)" fill="#fff"/><path d="M405.22,149.06l-8.15,7.43,4.3,4.16c1.92-2.37,3.89-4.67,5.68-7.11a2.81,2.81,0,0,0-.16-2.2,12.48,12.48,0,0,0-1.67-2.28" transform="translate(-110.9 71.09)" fill="#fff"/><path d="M365.12,195.11q.11,1,.3,2.07c.71,2.81,1.63,5.57,2.14,8.42.3,1.73,1.18,1.87,3.18,1.79-1-4.63-1.92-9-2.89-13.6-1.18.57-1.84.9-2.73,1.32" transform="translate(-110.9 71.09)" fill="#fff"/><path d="M233.93,276.21c-3.85,0-6.18,3.56-5.23,7.48,2.1,8.65,7.13,11.29,15.2,11.36,4.38,0,8.85-1.27,13.12-2.54a10.31,10.31,0,0,0,7.06-6.06c.2-.5.28-1.45,0-1.67-1.67-1.37-3.47-2.6-5.42-4-1.38,3.84-2.23,4.45-6.42,5.64-7,2-15.3-1.64-17-9.32a1.72,1.72,0,0,0-1.35-.88" transform="translate(-110.9 71.09)" fill="#feec36"/><path d="M195,264a3.4,3.4,0,0,0,.22.84c3.46,4.36,6.91,8.73,10.43,13a1.83,1.83,0,0,0,1.7.45c1.94-1.22,3.77-2.58,5.6-3.94s3.62-3,5.6-4.2a42.65,42.65,0,0,1,21.25-5.9A79.35,79.35,0,0,0,195,264" transform="translate(-110.9 71.09)" fill="#14a9e1"/><path d="M125,75.37c2-.05,2.88.72,3,2.93a72.2,72.2,0,0,0,1.28,8h1.05c.36-3,.86-6,1-9,.12-2.07.91-2.51,2.75-2.07s3.46.6,4.71.8a16.13,16.13,0,0,0-1.89-2.62c-1.61-1.53-2.16-2.87-.61-4.9,1.23-1.62,2-3.63,3.2-6.06l-10.41,6.23-5-5.4-.73.38c.33,2.43.66,4.87,1,7.28l-8,3.71.25.74c2.79,0,5.57,0,8.36,0" transform="translate(-110.9 71.09)" fill="#feec36"/><path d="M136.61,33.22a25.64,25.64,0,0,0,1.18-3c1.39-5.43,2.68-10.9,4.17-16.31a2.59,2.59,0,0,1,2-1.42c1.75.2,3.44.94,5.18,1.29,3,.61,6.09,1.08,9.49,1.68-2.92-2.77-5.59-5.08-8-7.67a5.08,5.08,0,0,1-1.14-3.76c.3-1.73,1.41-3.3,2.12-5,1.38-3.19,2.73-6.4,4.09-9.61l-.47-.61-16.7,8.92-9.15-12.56-.55.25V2a7.51,7.51,0,0,0-2.63.26c-3.57,1.91-7.06,4-10.65,6l14.79,3.27c2,7.16,4,14.19,6.17,21.75" transform="translate(-110.9 71.09)" fill="#feec36"/><path d="M440.3-21.4c2.78,1.45,4.74,2.66,6.84,3.49,1.81.72,2.4,1.84,2,3.64-.19.89-.55,1.75-.67,2.64-.4,3-.72,6.08-1.07,9.11l.82.22C450.18-5,452.3-7.7,454-10.6c1.17-2,2.62-2,4.37-1.51,2.47.71,4.91,1.54,7.36,2.31l.55-.54c-1.33-2.4-2.59-4.84-4-7.19s-1.28-3.47.88-5.08,4-3.22,6.07-4.83l-.26-.48-11.59,2.1-6.15-11.44-.8.19c-.36,4.48-.72,9-1.06,13.15L440.3-21.4" transform="translate(-110.9 71.09)" fill="#feec36"/><path d="M468.69,76c-.09,0-.15.2-.27.34a20.28,20.28,0,0,0,2.84,1.93c1.77.85,1.89,2,1.55,3.85a39.22,39.22,0,0,0-.09,6.68l.49.26c1.32-1.62,2.67-3.21,4-4.87,2.17-2.81,2.15-2.82,5.29-1.24.08,0,.26-.1.43-.18l-2.31-3.37,5.3-6.47c-2.27.64-4,1-5.61,1.59-2,.7-2.4-.36-2.8-2a15.25,15.25,0,0,0-1.32-3.18l-.9-1.38c-.37,1.44-.63,2.48-.9,3.5-1.18,4.35-1.18,4.35-5.64,4.59" transform="translate(-110.9 71.09)" fill="#feec36"/><path d="M320.77,280.53c4.65-1.31,8.94-3.88,13.56-5.37,6.18-2,10.68-6.48,15.53-10.31,5.56-4.41,9.09-10.63,11.4-17.44,1.87-5.55,4.22-11,5.22-16.78,1.3-7.43.59-15-1.08-22.43-1-4.23-2.53-8.31-3.71-12.49-2.48-8.74-8-15.32-14.88-20.7a51.14,51.14,0,0,0-15.45-8.28c-3.45-1.14-6.92-2.22-10.42-3.13-2.21-.57-4.58-.53-6.75-1.2-5.15-1.6-10.32-.36-15.41,0s-10.43,1.67-15.6,2.81c-10.2,2.26-19.39,6.58-26.84,14.22A56.48,56.48,0,0,0,243,200.47a65.13,65.13,0,0,0-3.9,22.71,75.25,75.25,0,0,0,.74,9.41A76,76,0,0,0,254,263.91l.2.22,0,.08,0,0a65.14,65.14,0,0,0,4.42,5.12c6.43,6.72,14.44,10.28,23.05,12.68,2.74.76,5.78.4,8.67.65s5.68.83,8.52.89a74.22,74.22,0,0,0,21.82-3" transform="translate(-110.9 71.09)" fill="#dd1c15"/><path d="M348.78,268.25l.2-.11,0,0-.18.14" transform="translate(-110.9 71.09)" fill="#dd1c15"/><path d="M285.05,161.93c-.24-1.55-.46-2.88-.67-4.22-2.25.38.14-.35-2.88.88-.37.15-1.84.85-2.33,1.07-1.69.74-3.34,1.54-5,2.31.27.95.51,1.8.78,2.71l10.1-2.75" transform="translate(-110.9 71.09)" fill="#14a9e1"/><path d="M263.21,170.84a31,31,0,0,0,4.55-2.24c1.18-.72,2-1.76.71-3.46-2.31,1.64-4.6,3.24-7.5,5.29,1.2.24,1.82.58,2.23.41" transform="translate(-110.9 71.09)" fill="#dd1c15"/><path d="M236.74,230.13c.13,0,.22-.11,0,0" transform="translate(-110.9 71.09)" fill="#feec36"/><path d="M236.05,218.74a14.38,14.38,0,0,0-4.09-.11c.15,2.59.36,4.91.39,7.23.06,4.7,0,4.7,4.35,4.28h0c.3-3.19.7-6.15.78-9.12a2.88,2.88,0,0,0-1.46-2.27" transform="translate(-110.9 71.09)" fill="#feec36"/><path d="M335.3,161.24l-9.4-3.15c-.28,1.53-.54,2.92-.8,4.31l9.32,2.86c.31-1.44.57-2.62.87-4" transform="translate(-110.9 71.09)" fill="#14a9e1"/><path d="M371.67,215.24l-2.54-.36v14.88l3.84.36c-.45-5.11-.87-10-1.3-14.88" transform="translate(-110.9 71.09)" fill="#14a9e1"/><path d="M356.52,181.11c1.88,1.95,2.76,5.32,6.28,5.32.38-4.71-3.33-6.62-5.27-9.77-1,1.48-2.55,2.87-1,4.45" transform="translate(-110.9 71.09)" fill="#dd1c15"/><path d="M248.1,265.43c.32.24.89.43.93.7.48,3.52,3.58,4.91,5.68,7.28.4-1.55,1.13-3.5.47-4.45a100.64,100.64,0,0,0-7.05-8.37c-2.5,1.93-2.49,3,0,4.84" transform="translate(-110.9 71.09)" fill="#fff"/><path d="M271.33,285a11.57,11.57,0,0,0,.7-4c0-.34-1.47-.61-2.24-1a15.85,15.85,0,0,1-1.64-.95l-5.87-3.64c-1.56,2.16-1.52,4,.48,5.4s4.27,3,6.51,4.34c.52.31,2,.14,2.06-.14" transform="translate(-110.9 71.09)" fill="#feec36"/><path d="M334.47,281.55c-1.37-3.1-1.57-3.13-4.25-1.9-1.7.79-3.51,1.32-5.15,1.93.14,1.35.31,2.88.52,4.81l8.88-4.84" transform="translate(-110.9 71.09)" fill="#14a9e1"/><path d="M242.43,255l.12-.17a2,2,0,0,1,1.08-.92,1.86,1.86,0,0,0,1.1-.94c.28-.52-.78-2.15-1-2.7-.13-.39-.28-.78-.42-1.16-.34-.87-.65-1.75-1-2.58-.12-.28-.52-1.41-1-2.63-.67-1.78-1.47-3.76-1.72-3.6l-.14.08c-.21.12-.41.17-.42.14s-2.1,1.76-2.58,2,1.8,5.17,2.07,5.8c.06.16.14.31.21.47.62,1.33,1.23,2.65,1.84,4,.17.38.35.77.52,1.17l.36.82a1,1,0,0,0,.41.48c.17.06.35,0,.53-.25" transform="translate(-110.9 71.09)" fill="#dd1c15"/><path d="M354.43,264.44l.18.1a3,3,0,0,1,1.19,1.09c.31.49.68.46,1.2.69,0,0,1.29-.88,1.62-1.19s.46-.47.69-.71c.5-.55,1-1.08,1.49-1.66s4-3.8,3.61-4.25a4.54,4.54,0,0,1-.55-.68c0-.06-2.3-2.12-2.7-2.64s-3.09,3.07-3.45,3.49l-.26.34-2.17,2.88c-.36.47-.74.92-1.1,1.4a.71.71,0,0,0,0,1,.69.69,0,0,0,.22.14" transform="translate(-110.9 71.09)" fill="#feec36"/><path d="M293.72,286c-.12-.6-2-.41-2.44-.53l-1.06-.22c-.8-.14-1.6-.31-2.41-.4s-5.89-1.31-6-.68a1.76,1.76,0,0,1-.28.73c0,.06-.43,3.31-.63,4s4.66,1.06,5.26,1.14l.47.05,3.92.32c.65.05,1.29.15,1.94.2s.88-.27.85-.89l0-.22a3.13,3.13,0,0,1,.22-1.71,3,3,0,0,0,.21-1.76" transform="translate(-110.9 71.09)" fill="#dd1c15"/><path d="M225.51,137.08c-5.08,3.14-10.65,4-16.17,4.56s-11.35,1.46-16.82-1.13a13.08,13.08,0,0,0-3.52-.57c-.1.17-.18.33-.27.49,1.78,1.35,3.53,2.74,5.35,4,4.32,3,8.65,6.1,13,9.07,6.36,4.3,12.7,8.66,19.2,12.76,6.92,4.36,14,8.47,21.05,12.63a2,2,0,0,0,1.91-.23c1.52-1.67,2.72-3.67,4.34-5.21a41.11,41.11,0,0,1,5.16-3.65c-9.07-11.39-16-23.8-22.29-36.15-3.9,1.14-7.9,1.5-11,3.4" transform="translate(-110.9 71.09)" fill="#14a9e1"/><path d="M208.52,216.38c-2.33-2-4.72-4-7.2-5.86-9-6.78-17.47-14.19-26.5-21.58-3.88,9.13-7.53,17.71-11.12,26.18l14,3.37,8.91,2.1c6.1,1.4,12.33,2.44,18.29,4.3,5.17,1.62,10.06,4.16,15.06,6.3l6.36,2.74c-3-3.25-6-6.38-9-9.38-2.56-2.42-5.53-5.18-8.75-8.15" transform="translate(-110.9 71.09)" fill="#dd1c15"/><path d="M378.18,216.13c3.31-7.46,8.8-13.33,13.9-19.45,3.19-3.83,7-7.13,10.6-10.62q7.45-7.29,15-14.5c2.34-2.25,4.73-4.43,7.09-6.64-.2-.25-.27-.42-.41-.5-4.78-3-9.55-6-14.41-8.79a2.77,2.77,0,0,0-2.56.69c-4.18,5.13-8.31,10.3-12.26,15.61-2.66,3.57-5,7.34-7.44,11.08a44.07,44.07,0,0,0-3.07,5.6c-2.08,4.62-4.29,9.21-6,14-1.23,3.52-1.65,7.32-2.48,11-.52,2.28-1.13,4.53-1.7,6.8l.79.35a36.2,36.2,0,0,0,2.92-4.61" transform="translate(-110.9 71.09)" fill="#14a9e1"/><path d="M414,248.41l-38.32-1-.24,1.39c13.45,1.17,23.21,9.58,33.33,17.55,1.82-6.24,3.49-11.93,5.23-17.91" transform="translate(-110.9 71.09)" fill="#feec36"/><path d="M293.11,156c0,.07,0,.12,0,.18l1.24-.08-1.25-.1" transform="translate(-110.9 71.09)" fill="#dd1c15"/><path d="M276.26,131.6c2.22,8.64,4.31,16.8,6.25,24.36l24.09-2.32c.57-7.3,1.1-14.24,1.58-20.58-5.28.76-10.63,1.69-16,2.25-5.56.58-10.81-.89-15.91-3.71" transform="translate(-110.9 71.09)" fill="#dd1c15"/><path d="M413,139.82c8.24-7,16.54-14,24.82-21-.52-.35-.76-.32-1-.24-3.38,1.4-6.65,3.22-10.16,4.1a50.39,50.39,0,0,1-20.57.57c-1.52-.24-3.53-.3-4.36-1.27-1.64-1.91-2.41-.85-3.47.3-4.86,5.26-9.66,10.59-14.6,15.77-4.61,4.85-9.42,9.49-14.05,14.33-2.24,2.35-4.21,5-6.38,7.4a59.7,59.7,0,0,1-5.6,5.87c-3.15,2.71-3.3,3.22-.51,6.33.1.11.07.34.17.46,1.59,1.85,3.24,3.64,4.75,5.55,1,1.23,1.75,2.63,2.76,4.18,8.81-5.93,16-14,23.9-21.25s16.13-14.1,24.27-21.07" transform="translate(-110.9 71.09)" fill="#feec36"/><path d="M152.41,212.45c-6.22,1.15-9.87,5.73-12.67,10.76-1.68,3-2.26,6.8-2.76,10.33a17.37,17.37,0,0,0,2.6,11.88c1.45,2.26,3.9,3.87,5.93,5.74,2.5,2.3,4.35,2.4,7.2.54,1.7-1.1,3.42-2.16,5.52-3.48.28-2-1.25-2.57-3-2.92-4.6-.89-8.12-3.29-9.89-7.79-3.54-9,.34-16.55,8.77-19.75-.19-1.9-.38-3.77-.58-5.82a5.5,5.5,0,0,1-1.1.51" transform="translate(-110.9 71.09)" fill="#feec36"/><path d="M232.72,304.57c-1.54-1-3-1.91-4.34-2.95s-2.61-2.24-3.89-3.35a11.68,11.68,0,0,1-14.2-1.14,2.45,2.45,0,0,1-.82-1.71c.38-2.82-1.69-3.05-3.49-3.5a22.57,22.57,0,0,0-3.07-.37c-1.82,3.5-.85,6.54,1.26,9.73,3.44,5.18,7.67,8.56,14.16,8.1a10.17,10.17,0,0,1,1.21.2c5.13.31,9.77-.66,13.18-5" transform="translate(-110.9 71.09)" fill="#dd1c15"/><path d="M415.75,292.14c-2.73-.24-5.57-2.05-7.46,1.67,3.54,5.23,9.1,6.06,15,5.22,6.85-1,12-5.27,16.91-9.8,4.35-4,6.2-8.94,6.5-14.69.11-2-.42-3.44-2.8-3.8a31.12,31.12,0,0,1-5.23-1.73c-.32,4.63-.89,9.08-3.17,13-4.42,7.56-11.17,10.87-19.75,10.14" transform="translate(-110.9 71.09)" fill="#dd1c15"/><path d="M356.1,290.7c-2.22,9-9.64,10.44-16.8,10.71-7.57.28-14.26-2.46-16.06-11.27l-11.07,3.24c.26,1.89.07,3.82.82,5.25,2.11,4,4.89,7.52,9.22,9.32.72.3,2.14-.21,2.39.19,1.93,3.15,5.18,2.25,7.88,2.68,7,1.12,13.36-1.26,19.54-4.13s10.31-7.68,12.83-14.38l-8.76-1.61" transform="translate(-110.9 71.09)" fill="#14a9e1"/><path d="M259.78,47c-1.54,5.3-3.21,10.56-4.58,15.9-1.62,6.32-3,12.7-4.44,19.07-.72,3.2-1.41,6.42-1.83,9.67-.63,4.89-2.3,9.67-.86,14.76a8.35,8.35,0,0,0,10,6.25,8.44,8.44,0,0,0,2.75-1.2,12.68,12.68,0,0,0,5.28-7.23c1.21-3.73,1.85-7.65,2.75-11.55.78-.09,1.58-.21,2.38-.26a2.08,2.08,0,0,1,2.4,1.71s0,.09,0,.14c.93,3.67,1.88,7.35,3.06,10.94,1.8,5.49,3.55,7.39,9.88,7.06a9.71,9.71,0,0,0,9.43-8c1.35-6.5.72-13-.84-19.3-1-4-2.48-7.82-3.61-11.77-1.72-6-3.1-12.17-5-18.13a31.2,31.2,0,0,0-8-13c-2.46-2.4-8.37-4.34-11.44-2.93-3.47,1.57-6.21,3.93-7.33,7.8M271,54.14c4.47,0,7.32,2.38,7.34,6.21s-2.59,6.56-6.07,6.52a6,6,0,0,1-6-5.87c-.06-3.57,2.21-6.85,4.76-6.86" transform="translate(-110.9 71.09)" fill="#161616"/><path d="M280.7,18c2.94,4.93,7.12,6.7,11.9,7.9,4.62,1.16,9.21-.06,13.69-1.28a15.5,15.5,0,0,0,5.32-2.31,24,24,0,0,0,7.82-10.76c1.95-5.28,2.78-11,3.86-15.53-.91-6.31-1.59-11.48-2.43-16.63-1-5.93-2.61-11.75-6-16.67-3.93-5.66-9.6-8.68-16.58-8.07-2.86.24-5.62,1.55-8.47,2.2-5.69,1.31-9.2,5.12-11.24,10.32A69,69,0,0,0,275.1-21c-.93,4.75-1.9,9.64-1.73,14.43A51,51,0,0,0,280.7,18m10-48.49A7.1,7.1,0,0,1,294-32.66a8.3,8.3,0,0,1,8.48,1.18A5.75,5.75,0,0,1,304.7-26c-.14,2.05-.91,4.13-3.26,4.88L298-20c-3.39-.2-6-.8-7.54-3.56a6.2,6.2,0,0,1,.3-6.88" transform="translate(-110.9 71.09)" fill="#161616"/><path d="M222.43-9.31c.11,7.27.34,14.53.33,21.8,0,4.5.31,8.9,3.75,12.14a20.75,20.75,0,0,0,6.61,4.54c3.63,1.37,8.46-1.54,9.87-5.7a89.63,89.63,0,0,0,3.58-12.9A109.4,109.4,0,0,0,248-3.89c.23-5,.06-10.06.06-14.73,2.54-.48,4.65-.81,6.73-1.3,6.08-1.43,10.85-4.57,12.88-10.87,1.26-3.92,1.19-9.65-4.4-12-.44-.18-1.05-.24-1.28-.57-1.78-2.6-4.48-3-7.23-3-3.72-.07-7.45.12-11.17.09-4,0-7.95-.46-11.88-.18-5.2.36-10.37,1.34-15.56,1.85-4.4.44-8.27,1.59-11.16,5.36s-4.2,11-1.54,14.53c2.25,2.94,5.18,5.53,9.08,6.31,3.26.64,6.55,1.21,9.93,1.84,0,2.43,0,4.85,0,7.27" transform="translate(-110.9 71.09)" fill="#161616"/><path d="M400.36,39.76c-1.4,4.81-2.25,9.58-1.2,14.55.86,4,2.53,7.62,6.28,9.6,2.88,1.53,6,2.61,9,3.92A53.46,53.46,0,0,1,420,70.35c2.52,1.46,2.89,3.65,1.14,6A8.39,8.39,0,0,1,414.47,80c-3,.08-5.93,0-8.9,0a5.05,5.05,0,0,0-4.83,2.86c-3.74,7.13-.17,14.65,6.12,17.94a14.2,14.2,0,0,0,4.58,1.47c2.67.36,5.49,1,8.06.45a29.2,29.2,0,0,0,16.39-9.36c2.66-3,4.93-6.51,5.26-10.62.47-6,.22-11.93-3.33-17.24-2.6-3.88-5.27-7.5-9.8-9.25a9.26,9.26,0,0,1-3.27-2.37,4,4,0,0,1-.39-5.21c1.08-1.83,2.46-1.14,4.05-1.12A15.52,15.52,0,0,0,435,46.11a5.38,5.38,0,0,0,2.45-3.64,9.73,9.73,0,0,0-5.68-10,19,19,0,0,0-11.26-1.95c-5.85-.26-10.54,2-15.23,4a8,8,0,0,0-4.88,5.28" transform="translate(-110.9 71.09)" fill="#161616"/><path d="M298.08,39.41c-7.15,3.88-7.43,10.33-5.29,17.22a5.61,5.61,0,0,0,5,4.13c2.44.19,4.87.42,7.3.49,3.5.1,3.5,0,3.77,3.53a8.51,8.51,0,0,1-.06,1c-.11,7-.34,14.06-.28,21.09,0,3.94.6,7.88.86,11.83.36,5.62,2.34,8.45,7.66,8.76,7.42.42,13.54-1.7,14.78-10.59a54.8,54.8,0,0,0,.64-8.19c-.09-7.92-.23-15.84-.62-23.75-.16-3.1,1-5.14,4.07-5.76,6.17-1.21,10.9-4.68,10.89-12,.28-4.32-1.29-7.32-5.13-9A33.39,33.39,0,0,0,335,36a39.31,39.31,0,0,0-8.89-1.26,157.39,157.39,0,0,0-17.89,1.41,30.81,30.81,0,0,0-10.16,3.24" transform="translate(-110.9 71.09)" fill="#161616"/><path d="M390,84.86a26.35,26.35,0,0,0-6.14-1.36q-5.91-.82-11.84-1.39c-2.28-.21-2.12-1.79-1.87-3.24.12-.71.94-1.82,1.49-1.85,3.46-.18,6.95,0,10.41-.19,2.43-.17,5-.49,6.14-3.37,2.57-6.21-1-12.72-7.57-13.64-3.26-.46-6.49-1.09-9.83-1.65.07-1.33.12-2.3.17-3.44,1.24,0,2.31,0,3.38,0,2.54.14,5.08.47,7.61.44,3,0,5.78-.92,7.1-4a26.16,26.16,0,0,0,1-4.8c1-4.46-3.71-10.76-8.23-10.85a78.47,78.47,0,0,0-10.95.2,34.14,34.14,0,0,0-10.18,2.55c-3.47,1.61-5.5,4.73-5.77,9-.35,5.3-1.47,10.54-1.72,15.84a145.3,145.3,0,0,0,2.43,33.63c.86,4.56,7,8.51,11.56,7.8a75.59,75.59,0,0,1,14.33-1.07c5.28.18,9.34-1.74,12-6,3-4.73,2.16-10.34-3.58-12.67" transform="translate(-110.9 71.09)" fill="#161616"/><path d="M333.16,21.7c3.11,4.1,10.61,4.89,14.61.1s5.82-10.43,7.52-16.24a11.4,11.4,0,0,1,1.12-2,11.52,11.52,0,0,1,.67,1.58c1.05,4.63,2,9.27,3.12,13.88,1.33,5.53,4.47,8.92,10.32,4.7,2.07-1.48,4-2.86,5.43-5.55a56.65,56.65,0,0,0,4-8.8c.89-2.65.84-5.63,1.22-8.46h.23c.06.39.12.77.16,1.16.76,7.18,1.64,14.29,5.93,20.46,1.47,2.12,3.16,3.65,5.65,2.9,2.22-.66,5-1.52,6.2-3.23C403,17.08,403.13,11,402.06,5c-1.19-6.66-2.67-13.26-4.08-19.87-1.31-6.16-2.14-12.52-4.24-18.4-2-5.73-5.43-11.12-12.16-12.3-3.33-.58-6.95-.53-9.39,2.61a38.92,38.92,0,0,0-4.27,6.52c-.88,1.77-1.11,3.87-1.64,5.82-.39,1.46-.79,2.93-1.19,4.4a32,32,0,0,1-1.48-5.36c-1-4.52-2.3-8.85-6.09-12-5.28-4.44-12.31-3.48-14.62,2.64-2.64,7-4.72,14.23-6.87,21.42-.94,3.15-1.4,6.45-2.14,9.67-.8,3.44-2.05,6.81-2.45,10.29A85.11,85.11,0,0,0,331,14.26c.12,2.55.74,5.51,2.21,7.45" transform="translate(-110.9 71.09)" fill="#161616"/><path d="M175.62,86.18a22.83,22.83,0,0,0,3.88,13.48c2.43,3.82,5.9,7,8.7,10.55a14.41,14.41,0,0,0,8.54,5.38,55.57,55.57,0,0,0,9.16,1.6c4.22.21,8.61.24,12.4-2a101.45,101.45,0,0,0,8.46-6.11c2.68,3.08,9.69,2.43,10.61-2.49a36.94,36.94,0,0,0,1-5.31,154.12,154.12,0,0,0,.11-17.06c-.18-2.54.15-4,2.19-5.33,3.67-2.46,5.1-6.17,4-9.67-1.3-4.2-3.48-5.78-8.34-6.09a36.8,36.8,0,0,0-4.92-.28c-6,.43-12.13.12-17.91,2.61-4.48,1.93-6.95,9-3.78,12.7,1.54,1.77,4.11,2.62,6.81,4.26.09,1.79.26,4.21.33,6.64.08,2.68-2.28,5.92-4.84,5.89a59.23,59.23,0,0,1-11-1.23,4.73,4.73,0,0,1-2.72-3,50.75,50.75,0,0,1-.71-23.44c.63-2.94,2.14-5.55,5.27-6.35a25.25,25.25,0,0,1,7.53-1c5.49.34,9.81-1.9,13.6-5.53,3.55-3.4,3.47-8.56.2-12.23-2.76-3.1-6.3-3.83-10.08-3.93-7.7-.22-14.95,2.06-22,4.72-4.83,1.81-8.4,5.37-11.44,9.54-5.33,7.33-4.9,16-5.42,24.36-.2,3.1.51,6.25.37,9.35" transform="translate(-110.9 71.09)" fill="#161616"/><path d="M472.48,72.26a2.92,2.92,0,0,1-2,1.55c-2,.39-4.13.47-6.21.68-.08.21-.17.42-.25.64a16.23,16.23,0,0,0,2.74,2.22c2.69,1.34,4.65,3,3.89,6.45a8.94,8.94,0,0,0-.2,2.47c.12,2.2.34,4.4.52,6.59l1.08.08,8-9.13,6.44,4.31.54-.65c-1-2.24-2.14-4.47-3.1-6.74a2.16,2.16,0,0,1,0-1.81c1.67-2.25,3.5-4.38,5.2-6.61A12.24,12.24,0,0,0,490.2,70a12.07,12.07,0,0,0-8.06,1.88c-1.65,1-2.89.71-3.65-1.34A44.43,44.43,0,0,0,475.87,65c-.23-.42-1-.57-1.52-.86-.65,2.94-1.12,5.57-1.88,8.11m2.83-4.71c.28.61.56,1.16.83,1.7a15.17,15.17,0,0,1,1.32,3.17c.4,1.7.79,2.75,2.8,2.06,1.63-.57,3.33-1,5.61-1.59-2,2.38-3.6,4.4-5.3,6.46.83,1.23,1.57,2.29,2.31,3.38-.17.07-.35.22-.43.18-3.14-1.59-3.12-1.57-5.29,1.24-1.28,1.65-2.63,3.25-4,4.87l-.48-.27a39.11,39.11,0,0,1,.09-6.67c.34-1.86.22-3-1.56-3.85a21.73,21.73,0,0,1-2.83-1.93c.11-.15.18-.35.26-.35,4.47-.24,4.47-.23,5.65-4.59.27-1,.53-2.06.9-3.5,0-.11,0-.2.08-.31" transform="translate(-110.9 71.09)" fill="#161616"/><path d="M492.78,164.94a15.62,15.62,0,0,0-4.95-9.07,15.13,15.13,0,0,0-1.35-1c-2.66-1.81-5.79-2.92-9.2-4.54l-.31-.14c.76-.58,1.73-1.23,2.59-2l.37-.37c.64-.65,1.2-1.38,1.85-2,1.75-1.72,2.46-2.74,2-3.56a1.18,1.18,0,0,0-.17-.22l0,0a8,8,0,0,0-3-1.51c-.21-.07-.37-.27-.73-.55h0a30.91,30.91,0,0,0,1.86-16.74,39.21,39.21,0,0,0-3.08-9.82,24.22,24.22,0,0,0-16.6-14,35.45,35.45,0,0,0-4.45-.91c.1-.54.17-.86.23-1.17,1-5.5,3.72-10.5,4.08-16.22q.19-2.89.13-5.75h0v-.1a52.93,52.93,0,0,0-3-16.67,4.49,4.49,0,0,1-.16-.48,1.91,1.91,0,0,1-.07-1.35s0,0,0,0c1.78-2.36,2.16-5.15,3-7.88a20.45,20.45,0,0,0,.77-3.7,36.58,36.58,0,0,0-1.08-12c-.62-2.88-2.6-5.59-4.42-8-1.94-2.62-3.89-5.33-6.6-7.18a13,13,0,0,0-2.57-1.39L443,14.6l-6.28-2.42-2.87-1.12a3.33,3.33,0,0,1-1.43-1.17,1.38,1.38,0,0,1-.23-.51C431,2.36,430-4.7,428.76-11.71c-.52-2.83-1.22-5.62-2-8.41-.07-.25-.13-.5-.2-.74-.23-.87-.47-1.73-.71-2.59-.1-.35-.21-.7-.32-1-.55-1.79-1.22-3.56-1.85-5.33-.11-.3-.22-.59-.32-.89l-.24-.74c-1-2.84-1.82-5.73-2.88-8.52-.3-.79-.6-1.57-.94-2.34-.65-1.46-1.32-2.91-2.08-4.32a30.43,30.43,0,0,0-1.91-3.13c-.51-.72-1-1.42-1.63-2.09-2.23-2.55-3.95-5.71-6.66-8-.95-.79-1.92-1.55-2.93-2.25a29.76,29.76,0,0,0-7.67-4,21.38,21.38,0,0,0-3.93-.93c-5.69-.8-11.6,0-17.41.08-1.58,0-3.27.42-4.82.38a5.76,5.76,0,0,1-1.64-.24,34.47,34.47,0,0,0-4.91-1.2,26.39,26.39,0,0,0-5.82-.38,23.25,23.25,0,0,0-4.69.66c-1.75.43-3.54.74-5.33,1.05a60.1,60.1,0,0,0-7.17,1.52,22.25,22.25,0,0,0-4.89,2,6.7,6.7,0,0,1-4.25.53,2.16,2.16,0,0,1-.93-.44,21.77,21.77,0,0,0-3.56-2.62l-.17-.1-.54-.28c-.15-.08-.3-.17-.46-.24a15.51,15.51,0,0,0-3.26-1.12,62.1,62.1,0,0,1-6.21-2.1,30.81,30.81,0,0,0-7.84-1.5,36.2,36.2,0,0,0-4.42,0c-1.09.07-2.18.18-3.26.34A60.44,60.44,0,0,0,285.45-66q-2.64,1.15-5.22,2.45a3.15,3.15,0,0,1-.67.24,3,3,0,0,1-1.72,0c-.54-.22-1.06-.48-1.59-.74A37.81,37.81,0,0,0,270-66.92c-.22-.07-.45-.14-.68-.19-2-.43-4-.78-6-1.09a83.47,83.47,0,0,0-9.73-1c-3.54-.12-7.1.24-10.66.45a48.63,48.63,0,0,1-7.44,0,40.56,40.56,0,0,0-14.25,1.5c-1.63.43-3.24.92-4.85,1.43-2.91.93-5.81,1.93-8.73,2.8-.41.13-.83.27-1.24.42a56,56,0,0,0-9.37,4.4c-1.23.7-2.45,1.42-3.65,2.14a22.24,22.24,0,0,0-7.21,6.64c-3.2,5-6.79,10.12-6.27,16.67a7.65,7.65,0,0,0-1.3,5.23,36,36,0,0,0,1,5.16,59.64,59.64,0,0,0,3.26,10c.29.69.57,1.37.88,2a10.47,10.47,0,0,0,.79,1.38c.21.32.44.64.68,1l.28.32c.31.38.64.74,1,1.09v0c.66.67,1.36,1.31,2,1.92a22.46,22.46,0,0,0,3,2.18c1,.62,2,1.2,3,1.77A2.42,2.42,0,0,1,196,2.19c-.44,3.92-.78,7.84-1.16,11.76-.08.86-.16,1.73-.25,2.6,0,.15,0,.3-.07.45a2,2,0,0,1-.64,1.24c-1.91,1-3.92,1.87-5.89,2.79-2.9,1.35-5.92,2.52-8.7,4.08-.31.17-.63.33-.93.51s-.87.56-1.3.85c-2.1,1.44-4,3.14-6,4.76l-.85.68-.74.53a10.3,10.3,0,0,0-2.66,2.26,95.83,95.83,0,0,0-5.26,8.48c-.88,1.58-1.84,3.16-2.71,4.76a30.31,30.31,0,0,0-2.09,4.65l-.1.3-.08.26A147.62,147.62,0,0,0,153,68.26s0,.08,0,.11a68.36,68.36,0,0,0-.72,23.35c.25,1.69.36,3.4.49,4.67-4,1.13-7.75,1.89-11.27,3.3-4.07,1.64-8.28,3.29-10.78,7.41a74.21,74.21,0,0,0-4.39,7.45,14.3,14.3,0,0,0-1.38,6.13,75.49,75.49,0,0,0,.55,9.51,29.2,29.2,0,0,0,1.26,5.38,21.91,21.91,0,0,0,6.4,9.78c.62.54,1.11,1,1.49,1.34a4.66,4.66,0,0,1,.67.8,1.3,1.3,0,0,1,.08.17.93.93,0,0,1,0,.1c.31.81-.21,1.61-1.41,3.48-1.49,2.3-2.34,4.71-1.3,7.37.06.17.11.33.19.51.34.71.7,1.43,1.08,2.17l1.41,2.8c-3.35,2.26-6.67,4.53-10,6.77q-2.88,1.94-5.78,3.83c-2.2,1.43-2.36,2.09,0,3.47a97.29,97.29,0,0,0,9.32,5.17c2,.93,4.11,1.79,6.19,2.64l6.44,2.63,2.9,1.21c1,.43,2.2.84,3.21,1.37a4.19,4.19,0,0,1,1.9,1.63,19.27,19.27,0,0,1,1.45,4.93c.25,1.34.46,2.7.75,4-5.73.46-7.22.87-9.09,2.09-.63.42-1.31.92-2.2,1.55l-.29.2c-7.74,5.39-10.7,13.29-12,21.85-.2,1.22-.36,2.45-.5,3.7-.38,3.5.57,7.24,1.38,10.77a36.61,36.61,0,0,0,1.74,6c.11.26.22.51.34.77h0a12.44,12.44,0,0,0,3.75,4.72c1.08.82,2.11,1.71,3.17,2.64,1.34,1.2,2.71,2.46,4.25,3.8l-6.52,4.6-1.56,1.1h0c.73.41,1.38.81,2,1.16l.63.32c3.2,1.55,6.41,3.06,9.62,4.58q3.71,1.76,7.43,3.47a18,18,0,0,0,1.85.7,7.79,7.79,0,0,1,3.6,1.92c1.36,1.67,1.73,4.23,2.39,6.44,1.15,3.85,1.68,8,3.41,11.54,2.37,4.86,5.59,9.3,8.47,13.91.8,1.28,2.06,1.68,3,.43l.46-.63q1.65-2.22,3.2-4.53c.79-1.19,1.56-2.4,2.28-3.63,2.36-4.09,4.44-8.36,6.66-12.59l.87.26,1.5.45,1.88.56h0c-1,2.3-1.92,4.4-2.77,6.53-.21.54-.41,1.08-.59,1.61-.1.3-.17.6-.25.9s-.15.48-.21.72a15.73,15.73,0,0,0,0,8.2,16.77,16.77,0,0,0,.57,1.64h0a26.6,26.6,0,0,0,16.55,15.17,29.13,29.13,0,0,0,7.64,1.36c6.7.28,12.81-1.85,18.72-4.73,1.17-.57,2.33-1.18,3.48-1.84a34.73,34.73,0,0,0,4.52-3,5.8,5.8,0,0,0,1-1.07,29.82,29.82,0,0,0,2.24-3.82c.23-.42.47-.83.73-1.22,1-1.48,1.82-3.22,3.62-3.81a3.93,3.93,0,0,1,.84-.18l10.28-1.09a.05.05,0,0,0,0,0,1.76,1.76,0,0,1,.23.37,1,1,0,0,1,.05.16c1.08,4.4,3.3,8,7,10.18l.16.1c.29.17.61.31.92.46s.51.27.79.39h0l.14.05a30.68,30.68,0,0,0,9.91,2.49,19,19,0,0,0,10.2-2.26,4.51,4.51,0,0,1,3-.62,3.79,3.79,0,0,1,1.5.65,16.65,16.65,0,0,0,5.64,2.21l.6.14c7.5,1.79,14.19-.06,20.17-4.91,1.67-1.35,3.2-2.5,5.31-2.7l.13,0h0a8.14,8.14,0,0,1,2.41.2c1,.22,2,.39,3,.53a30.82,30.82,0,0,0,10.45-.23c7.05-1.51,14-4.08,19.3-9.39,2.52-2.56,4.1-6.16,5.81-9.44a7.19,7.19,0,0,1,.92-1.5,2.71,2.71,0,0,1,1.75-.93c3.09-.48,6.16-1.16,7.95-1.51l4.74,3.67,1,.77a15.47,15.47,0,0,0,5.07,2.65c3.84,1.16,7.89.76,12-.17,1.27-.29,1.94-.28,2.85.69.1.11.2.22.31.36s.29.35.44.53a33.11,33.11,0,0,0,4.32,4.38,21.28,21.28,0,0,0,2.17,1.6c4.74,3.09,10,3.9,15.24,3.6a45.94,45.94,0,0,0,5.84-.75,42.77,42.77,0,0,0,13.42-4.8,35.88,35.88,0,0,0,5.48-3.83,38.55,38.55,0,0,0,7.42-8.35,27.34,27.34,0,0,0,4.25-10.85,21.5,21.5,0,0,0-2-13.17,45.41,45.41,0,0,0-5.75-8.64c-2.37-2.92-5.79-5-7.12-8.74a5.37,5.37,0,0,1-.51-1.84.6.6,0,0,1,.06-.19c1.34-2.42,2.6-4.91,4-7.31a42.93,42.93,0,0,1,3.46-5.29l3.19-4a63.55,63.55,0,0,0,6.21-9.13c.32-.61.64-1.23.93-1.86.7-1.53,1.79-2.9,2.37-4.46a.84.84,0,0,1,.06-.14c1.6-4.67,1-9.29-1.07-14.44h0l3.1,1.18,8.27,3.15h0a14.81,14.81,0,0,0,.2-1.49v-.05c-.25-3.68-.57-7.36-.75-11v-.1a2.85,2.85,0,0,1,.49-1.43h0a.54.54,0,0,1,.28-.21c4.17-.72,6.92-3.69,9.8-6.37A22.27,22.27,0,0,0,490,180a18.63,18.63,0,0,0,3.23-11.11,24.49,24.49,0,0,0-.43-3.91m-11.85-22.6c-5.34,7.15-10.72,14.35-16,21.45,2.89,8.21,5.78,16.46,8.75,24.92l-2.2.11c-2-4.83-4-9.5-5.93-14.16-1.67-4-3.38-7.89-5-11.88-.15-.4.42-1.26.86-1.7,2.57-2.58,5.37-4.95,7.75-7.68s4.28-5.74,6.64-9c-7.82-2.64-15,1.88-21.95-.09-3.14-5.44-6.17-10.92-9.42-16.26a4.45,4.45,0,0,0-6.16-1.26l-.13.09-2.38,1.47-2.1-3.36,6.12-5.56c5.45,2.63,8.27,7.77,11.63,12.34,1.82,2.49,3.09,5.4,4.74,8a2.69,2.69,0,0,0,1.91,1.06c6.43.29,12.88.44,19.31.72a21.39,21.39,0,0,1,3.54.73m-7.87,19.24c-.59-.61-1.57-.85-3.14-1.63,1.55-.78,2.88-2,3.69-1.72,1.47.51,3.35,1.69,3.78,3,1.71,5.22.86,13.47-4.93,17.54-.61-2.12-1.14-4-1.68-5.84.21.06.41.14.62.21,1-3,2.21-5.91,3-8.95.2-.71-.68-1.91-1.35-2.62M426.43,163c-4.9-2.8-9.77-5.64-15.34-8.87,2.68-.45,4.66-.91,6.67-1.12,5.46-.56,10.93-1,16.38-1.58.7-.07,1.82-.51,2-1,.84-2.9,1.5-5.87,2.12-8.83.87-4.1,1.64-8.2,2.46-12.3l.83-.3a30.59,30.59,0,0,1,2.65,3.34c1.89,3.18,3.63,6.44,5.45,9.67.11.21.38.36.46.58.41,1.12.47,2.82,1.24,3.26a9.25,9.25,0,0,0,4.73,1c4.43-.16,8.85-.62,13.27-.94.8-.06,1.61,0,3.29,0-3.34,3.85-6.15,7.21-9.09,10.44a33.5,33.5,0,0,1-4.62,4.2c-1.26.95-1.3,1.8-.7,3.15,3.34,7.73,6.6,15.49,10.15,23.85-1.46-.64-2.51-1.06-3.54-1.55-5.24-2.52-10.46-5.1-15.75-7.5-.51-.23-1.69.37-2.21.93-3.67,3.94-7.26,8-10.87,12-1.54,1.72-3.07,3.45-5.07,5.68-1.62-6-1.26-11.11-1.06-16.21.14-3.52.12-7.17,1.05-10.5,1.27-4.53-1.61-5.75-4.46-7.38m-51.9,97.71c2.1.76,4.05,1.35,5.89,2.2.69.32,1.59,1.28,1.56,1.91-.16,3.79-1.17,7.36-4,10.05-1.66,1.57-3.49,3-5.29,4.38-5.06,4-14.56,1.09-17.72-2.77a27.28,27.28,0,0,1-2.12-3.57l6.93-5.5c3.6,3.12,7.43,3.33,11.31.81,2.61-1.69,4.39-3.93,3.46-7.5m-20.2,27.19-6.53-3.69,5-6.08,5.07,3.15c-1.37.08-3.69,4.65-3.56,6.62M238.09,261.6a84.69,84.69,0,0,0-44.9.7c-1.66-1.9-.06-3.78.5-5.46,1.05-3.19,2.62-6.2,3.94-9.3.8-1.89,2-2.41,4.1-2.12a73.37,73.37,0,0,1,25.94,9.09c3.62,2,7.07,4.32,10.6,6.49-.06.21-.12.41-.19.61m1.75,2.67a42.59,42.59,0,0,0-21.25,5.9c-2,1.21-3.71,2.82-5.6,4.2s-3.67,2.73-5.6,3.94a1.78,1.78,0,0,1-1.7-.45c-3.52-4.3-7-8.67-10.43-13-.1-.11-.09-.31-.23-.84a79.26,79.26,0,0,1,44.81.28m1.67-9.54c-.13-.27-.25-.55-.37-.82s-.34-.79-.52-1.17l-1.83-4c-.08-.16-.15-.31-.22-.47-.26-.63-2.49-5.6-2.06-5.8s2.52-2,2.58-2,.2,0,.41-.14l.14-.08c.25-.16,1.05,1.82,1.72,3.6.46,1.22.86,2.35,1,2.63.37.84.69,1.72,1,2.59.15.38.29.76.42,1.15.19.55,1.24,2.18,1,2.7a1.91,1.91,0,0,1-1.1,1,1.94,1.94,0,0,0-1.08.91c0,.06-.07.12-.11.17-.18.24-.36.31-.53.25a.88.88,0,0,1-.41-.48M227,225.06c-2.19-3.05-4.22-6.23-6.61-9.12-2.78-3.37-5.83-6.52-8.85-9.7-3.43-3.6-7-7.07-10.41-10.69a93.86,93.86,0,0,1-8.24-9.35c-2.19-3.06-3.69-6.64-5.49-10,13.3,7.53,35.61,37.09,39.6,48.85M189.5,172.25c4-2.83,8.05-5.65,12.13-8.38a1.68,1.68,0,0,1,1.61.44c3.7,7.51,9.36,13.92,11.8,22.19,1.1,3.74,3.49,7.07,4.85,10.76,2,5.55,3.69,11.25,5.52,16.88.48,1.47,1.05,2.91,1.58,4.36l-.4.32c-1.66-2.92-3.17-5.94-5-8.73a100.19,100.19,0,0,0-8.22-11.4c-6.35-7.17-13-14.05-19.64-21a17.7,17.7,0,0,0-4-2.92c-1.45-.84-1.63-1.6-.26-2.56m-.36,22.16q7,3.4,13.93,7.07a11.91,11.91,0,0,1,2.46,2.24c7.16,7,13.91,14.26,19.15,22.87.64,1,1.57,1.9,2.31,2.89a9,9,0,0,1,.71,1.47c-7.51-6.74-14-14.33-22.13-20.27-8-5.82-15.34-12.46-23.38-19.07,2.59,1,4.83,1.77,6.95,2.8m30.78,36.78c-5-2.14-9.89-4.68-15.06-6.3-6-1.86-12.18-2.9-18.28-4.3q-4.47-1-8.92-2.1l-14-3.37,11.12-26.19c9,7.4,17.54,14.8,26.51,21.59,2.47,1.87,4.86,3.83,7.2,5.86,3,2.6,5.88,5.31,8.75,8.16q4.51,4.5,9,9.38l-6.35-2.74m13,10.49c.45.17.76.9,1,1.44,1.31,3.05,2.59,6.12,3.92,9.31-3.71-1.73-7.54-3.48-11.34-5.29s-7.7-3.92-11.65-5.61a53.21,53.21,0,0,0-9.73-3.33c-2.8-.6-5.76-.33-8.65-.48a49.24,49.24,0,0,1-7.17-.55c-2.73-.56-5-.26-6.41,1.58L166.61,232c2.28-.23,4.88-.83,7.43-.67,7.75.47,15.5,1,23.21,1.94,7.32.89,14.66,2,21.86,3.6,4.74,1.06,9.26,3.14,13.84,4.85M181.47,153.3l-4.79-6.84c-.57-.8-1.13-1.6-1.72-2.39-1.74-2.28-.79-5.68,2-6,2.31-.28,4.73.23,7.32.41-1.42,2.8-3,4.82-3.43,7.07s.34,4.67.66,7.77M149.7,120a10.83,10.83,0,0,1,0,9.46,13.48,13.48,0,0,0-.63,3.08l-.87.45c-1.48-2.64-3.1-5.2-4.4-7.92-2.48-5.18.21-11,4.13-14.35a17.78,17.78,0,0,1,3.85-2.53c3.53-1.66,4.81-1,5.87,2.94-2.75.21-5.43.63-7,3.34-1,1.72-1.88,3.44-.92,5.53m1.67-1.38c.14-2.13,1-4.16,3.2-4.8,3.14-.9,5.26-.09,6.53,2.12,1.83,3.18,3.64,6.38,5.42,9.51l-2.9,4.12c-2.6-2.52-5.16-5.07-7.82-7.52a2.92,2.92,0,0,0-2.18-.92c-2.61.76-2.33-1.18-2.25-2.5M169.52,129c1.44,1.42,2.54,2.69,3.83,3.73a46.19,46.19,0,0,0,3.89,2.6l-5.81,3.95-5.25-5.85,3.34-4.43M186.05,141l10.23,7.67-12.78,3.77c-1.75-6-.53-8.22,2.55-11.44m164,128.52c1.13,1.21.9,2.09-.48,2.94-3,1.84-5.9,3.78-9.1,5.84-.46-1.24-.83-2.19-1-2.76l9.36-7.29.18-.15,0,0c.33.47.68.94,1.06,1.38m-56.76,19.88,0,.22c0,.62-.25.93-.85.89s-1.29-.14-1.94-.2c-1.31-.12-2.61-.22-3.92-.32l-.47-.05c-.6-.08-5.45-.55-5.26-1.14s.61-3.9.63-4a1.76,1.76,0,0,0,.28-.73c.13-.63,5.35.61,6,.68s1.61.26,2.41.4l1.06.22c.49.12,2.32-.08,2.44.53a2.93,2.93,0,0,1-.21,1.75,3.17,3.17,0,0,0-.22,1.72m-30.53-8.6c-2-1.43-2-3.24-.48-5.4l5.87,3.63a14.31,14.31,0,0,0,1.64,1c.77.36,2.23.63,2.24,1a11.57,11.57,0,0,1-.7,4c-.1.28-1.54.45-2.06.14-2.24-1.33-4.39-2.81-6.51-4.34m100-94.37c-3.52,0-4.4-3.38-6.28-5.33-1.54-1.58,0-3,1-4.45,1.94,3.16,5.65,5.07,5.27,9.78M362,178c-1.52-1.91-3.17-3.7-4.75-5.55-.1-.12-.07-.35-.18-.46-2.78-3.11-2.64-3.63.52-6.33a62.14,62.14,0,0,0,5.6-5.87c2.16-2.43,4.13-5.05,6.38-7.4,4.62-4.84,9.44-9.48,14.05-14.33,4.94-5.18,9.74-10.51,14.6-15.77,1.06-1.15,1.82-2.21,3.46-.3.84,1,2.85,1,4.36,1.27a50.39,50.39,0,0,0,20.57-.57c3.51-.88,6.79-2.7,10.17-4.1.21-.09.44-.11,1,.24-8.27,7-16.58,14-24.82,21s-16.39,13.8-24.27,21.07-15.09,15.32-23.9,21.24c-1-1.55-1.78-2.95-2.76-4.17m-11.76-3.91-10.13-6.22,2.59-3.63c2.5,1.76,5.19,3.49,7.7,5.46,2.07,1.64,1,3.28-.15,4.39M325.1,162.4c.26-1.4.51-2.78.8-4.31,3.33,1.11,6.36,2.12,9.39,3.15-.3,1.4-.56,2.58-.87,4l-9.32-2.86m-11.57-2c-1.12-.33-2.21-.77-3.47-1.21v-1.92h8.7c.27,3.58-1.06,4.35-5.23,3.13M293.11,156l1.25.1,7.55.6v2.65l-8.4,1.07c-.13-1.37-.24-2.66-.39-4.24,0-.06,0-.11,0-.18M274.17,162c1.66-.77,3.31-1.57,5-2.31.49-.22,2-.92,2.33-1.07,3-1.23.63-.5,2.88-.88.21,1.34.43,2.67.68,4.22L275,164.68c-.27-.91-.51-1.76-.79-2.71m32.43-8.33L282.5,156c-1.93-7.55-4-15.72-6.25-24.35,5.11,2.81,10.36,4.28,15.92,3.7,5.38-.55,10.73-1.49,16-2.25-.49,6.34-1,13.28-1.58,20.58M261,170.43l7.5-5.28c1.32,1.69.46,2.73-.71,3.45a31.47,31.47,0,0,1-4.55,2.24c-.42.17-1-.17-2.24-.41m-8.27,9.4c-1.82,2.56-3.79,5-5.79,7.63l-2-1.63,7.8-7.28c0-.05.32.85,0,1.28m-11.94,22.44c-.22.82-.5,1.63-.75,2.45l-.36,1.08c-.19.5-.35,2.3-.86,2.49a1.81,1.81,0,0,1-1.39,0,1.93,1.93,0,0,0-1.36,0l-.19,0c-.51.09-.71-.16-.57-.76s.34-1.3.5-1.95c.32-1.31.63-2.62.95-3.93,0-.16.07-.32.11-.47.18-.61,1.41-5.48,1.85-5.36s3.08.2,3.14.22.24.16.54.2c.49.07-1.43,5.39-1.61,6.06m-4,27.85h0c-4.33.43-4.29.43-4.35-4.27,0-2.32-.25-4.64-.39-7.24a14.68,14.68,0,0,1,4.08.11,2.88,2.88,0,0,1,1.47,2.28c-.08,3-.48,5.93-.78,9.11m0,0c.22-.11.13,0,0,0m11.39,30.47a100.08,100.08,0,0,1,7,8.36c.66,1-.06,2.9-.46,4.46-2.1-2.37-5.2-3.77-5.68-7.28,0-.28-.61-.47-.93-.7-2.46-1.85-2.47-2.91,0-4.84m4.1,25.83c4.2-1.19,5-1.8,6.43-5.65,1.95,1.41,3.74,2.64,5.42,4,.27.23.19,1.18,0,1.68a10.36,10.36,0,0,1-7.06,6.06c-4.26,1.27-8.74,2.57-13.11,2.54-8.07-.07-13.1-2.72-15.2-11.37-.95-3.92,1.38-7.48,5.22-7.47a1.69,1.69,0,0,1,1.35.89c1.66,7.68,9.95,11.3,17,9.31m38.19-3.73c-2.89-.25-5.93.11-8.67-.66-8.61-2.4-16.62-5.95-23.05-12.67a65.14,65.14,0,0,1-4.42-5.12l-.24-.32a75.71,75.71,0,0,1-5.67-8.54,74.28,74.28,0,0,1-8.55-22.79c-.61-3.07-.51-6.27-.73-9.41a65.13,65.13,0,0,1,3.9-22.71,56.4,56.4,0,0,1,13.35-21.08c7.45-7.64,16.64-12,26.84-14.22,5.16-1.14,10.36-2.48,15.6-2.81s10.26-1.56,15.41,0c2.17.67,4.54.63,6.75,1.2,3.5.91,7,2,10.41,3.13A51.19,51.19,0,0,1,346.81,175c6.9,5.39,12.4,12,14.87,20.7,1.19,4.18,2.76,8.26,3.72,12.49,1.67,7.39,2.38,15,1.08,22.43-1,5.73-3.35,11.23-5.22,16.79-2.3,6.79-5.84,13-11.4,17.43-4.85,3.83-9.36,8.32-15.53,10.32-4.62,1.49-8.91,4.06-13.56,5.37a74.26,74.26,0,0,1-21.82,3c-2.85-.06-5.68-.64-8.53-.89m39.8-3c2.68-1.23,2.88-1.2,4.25,1.89l-8.88,4.85c-.21-1.94-.38-3.46-.52-4.82,1.64-.6,3.46-1.14,5.15-1.92m-2.38,7.94a49.08,49.08,0,0,0,5.57-3,44,44,0,0,0,4.56,4.9,5.39,5.39,0,0,0,6.81.17c3.52-3.08,6.21-1.06,9.39.54-3,9-12,10.64-20.58,8.23a10.39,10.39,0,0,1-7.46-6.68c-.67-1.8-.46-3.27,1.71-4.14m8.62-4.5,5.62-3.28,4.35,6.6c-5.27,3.28-8.7,2.21-10-3.32m17.72-19.79c.35-.48.74-.93,1.1-1.4l2.17-2.88.26-.34c.36-.43,3.1-4,3.45-3.49s2.65,2.58,2.69,2.64a4,4,0,0,0,.56.67c.41.45-3.23,3.77-3.62,4.25s-1,1.11-1.49,1.66c-.22.25-.45.48-.68.71s-1.63,1.19-1.63,1.19c-.52-.23-.88-.2-1.2-.68a2.88,2.88,0,0,0-1.18-1.09l-.18-.1a.71.71,0,0,1-.4-.92.83.83,0,0,1,.14-.22m15-48.42,2.53.35c.43,4.9.86,9.78,1.3,14.89l-3.83-.37Zm-1.58-9.29c-.5-2.85-1.42-5.61-2.13-8.41a18.28,18.28,0,0,1-.3-2.08l2.73-1.32c1,4.56,1.9,9,2.88,13.6-2,.08-2.87-.06-3.18-1.79m39.5-52.05c-1.79,2.44-3.76,4.74-5.68,7.11l-4.3-4.16,8.15-7.43a12.08,12.08,0,0,1,1.68,2.28,2.76,2.76,0,0,1,.15,2.2m-20.74,12.63c1,.93,2,1.8,2.84,2.76,3.24,3.54,3.08,3.49.28,7.91-1.12,1.78-2.41,3.44-3.76,5.35-.54-4.42-3.26-7-7.17-8.76l7.81-7.26m-10.14,47.42c.83-3.67,1.25-7.47,2.48-11,1.67-4.77,3.88-9.36,6-14a43.7,43.7,0,0,1,3.08-5.61c2.4-3.74,4.78-7.51,7.43-11.07,3.95-5.31,8.08-10.48,12.26-15.61a2.71,2.71,0,0,1,2.56-.69c4.86,2.81,9.63,5.82,14.41,8.78.14.08.22.25.42.5-2.37,2.21-4.76,4.4-7.1,6.64q-7.51,7.23-15,14.5c-3.58,3.5-7.41,6.79-10.6,10.63-5.09,6.11-10.59,12-13.9,19.44a36.2,36.2,0,0,1-2.92,4.61l-.79-.35c.57-2.27,1.18-4.52,1.7-6.8m43.4-72.77-2.25-2.17c3.22-2.7,6.34-5.31,9.58-8l1.59,2.34-8.92,7.87m20-13.06c-1.76,6.1-4.07,11.89-4.93,17.89-.61,4.24-2.44,3.93-5.51,4.08-4.74.22-9.43,1.25-14.14,1.91-1.25.17-2.5.23-3.76.34-.14-.17-.3-.33-.44-.49,8.85-8.66,17.3-17.81,28.78-23.73m-86.7,39.43c-4.86-2.35-9.25-4.48-13.65-6.58a21.42,21.42,0,0,1-3.4-1.5,2.53,2.53,0,0,1-.54-2.23c.81-2.84,1.84-5.62,2.76-8.44q3.1-9.58,6.2-19.18c.2-.62.44-1.22.44-1.22,4.29.76,8.33,1.7,12.43,2.14,5,.55,10.05.75,15.09,1,4.74.22,9.1-1.42,13.4-3.17a24.45,24.45,0,0,1,5.54-1.75l-38.27,41m-20.33-9.57-2.39-.45c-4.79-.86-9.57-1.79-14.39-2.53a15.5,15.5,0,0,0-4.3.21c-1.62.2-2.09-.6-2-2,.4-7.27.79-14.54,1.2-21.95,11.07,4,21.27,1.32,31.81-1.62l-9.91,28.38m-58-23.74c1.84,7.4,3.71,14.69,5.39,22a3,3,0,0,1-1.4,2.35c-4,2.29-8.22,4.32-12.27,6.58-1.88,1.05-3.57,2.45-5.4,3.71-9.06-10.86-15.65-23.22-22.61-35.84,4.44,1.23,8.45,2.53,12.55,3.43A86.47,86.47,0,0,0,262,137.88a14.76,14.76,0,0,0,11.51-3.7c.16-.14.44-.13,1-.3m-21,39.6c-1.62,1.54-2.82,3.54-4.35,5.21a2,2,0,0,1-1.9.23c-7.05-4.15-14.13-8.26-21.05-12.63-6.5-4.1-12.84-8.45-19.2-12.76-4.39-3-8.7-6-13-9.07-1.82-1.29-3.57-2.68-5.35-4l.27-.5a12.64,12.64,0,0,1,3.51.58c5.48,2.58,11.28,1.64,16.83,1.12s11.09-1.41,16.17-4.55c3.07-1.9,7.08-2.26,11-3.4,6.3,12.34,13.22,24.76,22.29,36.14a43.28,43.28,0,0,0-5.16,3.65M216.86,163l8.17,5.13-3.3,3.29-5.27-8c.13-.14.26-.27.4-.4m6.88,9.19a37.87,37.87,0,0,1,2.89-3.05l5.41,3.15-5.79,8c-.93-1.82-2.1-3.94-3.07-6.16a2.48,2.48,0,0,1,.56-1.94m7.06,4.35c1.7-2.15,4.42-2.6,7-1a16.67,16.67,0,0,1,2,1.5l-9.52,12.7c-2.93-4.15-2.86-8.87.53-13.15m4.33,9.25a40.06,40.06,0,0,1,3.63-4.7c1.67-2,3.47-3.55,6.08-1.24a8.93,8.93,0,0,0,2.3,1,46.2,46.2,0,0,0-13.52,21.2,12.06,12.06,0,0,0-.8-3c-3.23-5.17-.24-9.2,2.3-13.27m12.33,90.62-2.13-4.93,3.13-1c3.93,4,3.86,4.55-1,5.93m-1.8-.32c2,2.86,3,3.22,5.75,1.28,1.92-1.32,3-1.16,4.17.63a6.72,6.72,0,0,0,1.43,1.28c-1.06,5.53-5.58,5.51-9.4,5.67-4.26.17-7.8-2-10-5.93-1.5-2.67-.55-5.43,2.26-6.48,1.14-.42,2.31-.74,3.48-1.1a36.71,36.71,0,0,0,2.33,4.65m36.54,23.34c3.24-.36,5.08-2.17,6-5.3a2.7,2.7,0,0,1,2.2-1.36c2.94.17,5.87.65,8.72,1,.43,7.15-5.34,14.92-10.9,15.89-11.68,2-18.31-.46-20.95-7.73l4.4-2.86c3.34,3.43,7,.75,10.54.36m20.39-4.1a1.81,1.81,0,0,1,1.19-1.1,18.75,18.75,0,0,1,3.87-.65c.66,0,1.87.31,1.92.63a3.25,3.25,0,0,1-.5,2.5,13.16,13.16,0,0,1-3.14,1.67,11.66,11.66,0,0,1-2.78-1.21,2.34,2.34,0,0,1-.56-1.84m3-4.33v-5.72l10.16-1.06c.16,1.48.32,3,.51,4.75l-10.66,2M366,251.72c-1.06-.46-2.44-1.31-2.7-2.27-.32-1.2.26-2.71.65-4,.22-.72.9-1.28,1.25-2,.48-1,.77-2.9,1.27-2.94,1.6-.13,3.27.4,5.4.76-1.46,3.37-2.6,6.23-3.95,9-.33.69-1.54,1.64-1.92,1.47m.19-67.2,2.16-1.62c1,.51,2,1.06,3,1.48,3.46,1.41,6.4,5.52,6.13,9.37a86.25,86.25,0,0,1-1.61,9.69c-.51,2.7-1.12,5.37-1.68,8.06-1.36-9.42-3.12-18.6-8-27m9.52,40.26c3.18-5.31,6.26-10.7,9.64-15.88,6.6-10.1,15.39-18.22,23.84-26.63,4.84-4.83,9.86-9.47,14.94-14,1.22-1.08,2.71-3.11,4.46-1.42-.52,10.14-1,20-1.52,29.73a65.19,65.19,0,0,0-19,8c-4.62,2.74-9.52,5-13.92,8.1-6,4.16-11.58,8.85-17.34,13.32-.32.25-.61.53-.91.8l-.62-.3a6.17,6.17,0,0,1,.47-1.64m81.15-114.23-4.27-2.2c.22-.72.43-1.41.75-2.49,1.09.36,2.48.44,3.17,1.18.55.58.24,2,.35,3.51m-2.31,1c5.7,3.92,8.27,10.5,7.08,17.59-.55,3.29-1.36,6.07-3.48,8.61-2.72-3.82-5.47-7.37-7.82-11.17-.62-1-.31-2.84.06-4.14,1.55-5.37-.33-6.87-3.13-9.14,1.91-3.1,3.9-4.07,7.29-1.75M464.21,123c-.94-2.12-1.89-4.26-2.82-6.4-.56-1.27-.29-1.76,1-2.53s2.26-1.68,3.33-2.6l4.92,10.47-6.41,1m7.88,9.12a17.18,17.18,0,0,1,0,2.87c-.39,2.62-.53,4.45-4.35,4a67.13,67.13,0,0,0-7.37,0,36.19,36.19,0,0,0,2.21-4.51c.87-2.57,2.56-2.81,4.84-2.4a27.33,27.33,0,0,0,4.7,0m5-17.67c3.64,8.32,4,16.76.41,25.37h-4.37c2.88-6.87.4-13.17-1.34-19.53a23.57,23.57,0,0,0-5.92-10.69c-3.49-3.58-6.9-4.69-11.21-5.61l2.2-3.78c9.41,1,16.37,5.41,20.23,14.24M157.39,67.07c.94-3.63,2.48-7.11,3.26-10.77a34.51,34.51,0,0,1,8.52-16.15c3.13-3.43,7.37-5.88,11.28-8.51A49.05,49.05,0,0,1,188.93,27a41,41,0,0,1,8.9-2.48c1.94-.33,2.58-1.08,2.4-2.89A72.73,72.73,0,0,1,200.57,4c.4-2.67,1.07-5.31,1.6-7.93-13.9-4-20.51-22.16-15.35-35.48,1.79-4.64,4.41-8.77,9.23-11.08a99,99,0,0,0,9-5.43c5.22-3.22,11.13-4.34,17-5.28,5.32-.86,10.74-1.1,16.11-1.62a78.11,78.11,0,0,1,9-.86,108.58,108.58,0,0,1,12.87,1.06,37.59,37.59,0,0,1,16.52,6.38c1.4,1,2.22,0,3.28-.59,7.57-4.55,15.43-8.61,24.47-8.37a88.2,88.2,0,0,1,15.83,2.28c4.85,1,7.66,5.17,10.85,8.61,3-1.28,5.84-2.63,8.79-3.78A67.62,67.62,0,0,1,348.45-61a69.54,69.54,0,0,1,11.65-1.9c1.77-.1,3.62,1.23,5.43,1.9.73.27,1.5.8,2.19.71,3.56-.47,7.1-1.48,10.66-1.59a41,41,0,0,1,20.32,4.78c7.3,3.79,12.1,10,15.65,17.25a70.26,70.26,0,0,1,4.27,10A88,88,0,0,1,421.3-17.5c1.3,8.57,2.38,17.17,3.46,25.76.17,1.36-.25,2.79-.11,4.16A2.1,2.1,0,0,0,426,13.91c12.31.85,22,5.83,27.16,17.77a42.26,42.26,0,0,1,2.9,7.62c1.45,6.45-.86,12.11-4.23,17.45-.27.44-.35,1.53-.1,1.71,3.62,2.54,4.27,6.45,4.85,10.4a44.88,44.88,0,0,1-6.7,31.39c-2.54,4-6.18,6.79-9.94,9.39-4.64,3.2-9.28,6.7-15,7.55-6.05.92-12.19,1.7-18.3.34-2.06-.46-4.06-1.41-6.13-1.6-1.59-.15-3.7,0-4.8.95a26.4,26.4,0,0,1-12.69,5.85c-5.3,1-10.62,2.22-16,2.37-7.3.21-14.67-.37-21.33-4.06-1.66-.92-2.56-1.47-4.26.67-1.4,1.76-4.52,2.4-7,2.92-4.79,1-9.6,2.37-14.57,1.65-2.84-.41-5.63-1.17-9.11-1.9A23.64,23.64,0,0,1,295.45,130c-7.19.1-13.78-2.08-20.53-3.78a34.14,34.14,0,0,1-3.33-1.14c-2.22,2.06-3.95,4.22-6.17,5.54-1.65,1-3.95.8-5.94,1.24-7.85,1.78-14.27-2.18-20.47-4.92-5.67,2.37-11,4.94-16.55,6.79-3.75,1.25-7.84,1.43-11.76,2.17a37.26,37.26,0,0,1-17-.68,65.89,65.89,0,0,1-14-5.76c-7.07-4-11.79-10.46-16.57-16.92-4.57-6.16-6-13-6.39-20.42C156.5,86.58,156,81,156,75.49a34.34,34.34,0,0,1,1.41-8.42m-30.63,60.08c-1-8.54,2.15-15.25,7.25-21,2.4-2.71,6.68-3.88,10.29-5.25,3-1.11,6.21-1.48,9.35-2.19.25,1.1.48,2.14.74,3.28-2.16.17-4.17.18-6.13.5-5.27.88-8.71,4.08-11.34,8.74-4.27,7.59-2.24,14.81.18,22.34a20.92,20.92,0,0,0,8.4,11.16,1.92,1.92,0,0,1,.8,1.35c-.14,1.54-.49,3.05-.8,4.85a35.32,35.32,0,0,1-4.35-2.07c-7.87-5.11-13.18-11.69-14.39-21.7M142,160.24a31.29,31.29,0,0,0-3,1.36,2,2,0,0,1-2.78-.27,1.94,1.94,0,0,1-.31-.52,7.89,7.89,0,0,1,.88-9.93c.47-.5,1.34-.61,2.4-1.06-1.46,5.88-.89,7.78,2.76,10.42m-1.32-7.3c1.38-2.48,2.33.32,3.66.22-.38,1.86-.69,3.37-1,4.93-2.45-1.09-3.62-3.41-2.66-5.15m7.93,35.9c-4.34-1.71-8.58-3.66-12.86-5.51l-14.82-6.43c2.48-1.81,4.23-3.16,6-4.4,4.4-3,8.53-6.71,13.33-8.75,5.28-2.25,5.58-6.77,7-11a63.66,63.66,0,0,0,2.12-7.31c.76-3.61,1.19-7.29,1.91-10.91s1.62-7.17,2.44-10.75l1-.6c2,2.25,4,4.47,5.86,6.78q7,8.51,13.84,17.08a42.28,42.28,0,0,1,2.53,4c2.86,4.56,2.88,4.62,8.05,3.3,3.46-.88,6.88-1.92,10.31-2.94,1.93-.57,3.64-1,5.55.51,3.18,2.53,6.9,4.41,9.9,7.12a28,28,0,0,1,5.51,7.48c3.6,6.64,7.26,13.29,10.2,20.23a61.08,61.08,0,0,1,5.18,21c.12,3-.93,6-1.4,9.06-.19,1.15-.26,2.32-.44,4-1.49-5.05-2.68-9.67-4.22-14.17-1.59-4.66-3.42-9.24-5.33-13.78-2.52-6-5.06-12-7.9-17.84-1.5-3.09-3.74-5.8-5.49-8.77a53.11,53.11,0,0,1-2.46-5.31c-1-2.17-3.08-2.37-4.9-2.36a49,49,0,0,0-7.44,1c-5.16.84-10.33,1.58-15.44,2.68-1.55.33-1.93-.31-2.34-1.3-1.62-3.79-3.13-7.63-4.78-11.41a46.94,46.94,0,0,0-10.48-15.31c-1.4,10.56-2.73,20.48-4.1,30.81l-23.75,8.22a4.7,4.7,0,0,0,3.38,4c3.12,1.14,6.25,2.28,9.35,3.5,4.22,1.67,8.46,3.33,12.6,5.2.5.23.62,1.74.58,2.65-.4,9.25-.67,18.5,2.24,27.44.46,1.45.85,3.55,3.79,1.83,1.63-.95,4.58.18,6.87.68,5.8,1.25,11.57,2.66,17.35,4.05,8,1.9,16.08,3.09,23.48,7.1,4.5,2.43,9.41,4.09,14.09,6.28-3.89-.77-7.77-1.61-11.67-2.29-5.23-.91-10.45-2-15.72-2.45-8.93-.77-17.9-1.17-26.86-1.55a72.75,72.75,0,0,0-9.56.42c-1.72.16-2.24-.37-2.48-2.1-1-7.12-2.1-14.23-3.45-21.29-.74-4-2-7.79-3.07-11.68-.12-.48-.45-1.05-.3-1.42,1.28-3.3-1-3.9-3.26-4.8m4.84,48.1a3.15,3.15,0,0,0,1.2.84c3.18.71,3.17,3.23,3.17,5.88-8.08-.93-10.87-4.43-11.83-11.78a11,11,0,0,1,5.32-10.95c2.48-1.62,3.6-1.17,4,1.84.08.56.17,1.11.27,1.75-3.73.19-4.15,3.61-5,6s.9,4.69,2.82,6.41m-8.12.56c1.77,4.5,5.29,6.9,9.89,7.79,1.77.35,3.3.94,3,2.92-2.1,1.32-3.83,2.38-5.52,3.48-2.85,1.87-4.7,1.76-7.2-.54-2-1.86-4.48-3.47-5.94-5.73a17.39,17.39,0,0,1-2.6-11.88c.5-3.53,1.09-7.31,2.77-10.33,2.8-5,6.44-9.62,12.67-10.77a5.42,5.42,0,0,0,1.09-.51c.21,2,.39,3.92.58,5.82-8.42,3.2-12.3,10.75-8.77,19.75m8.51-10.45c.3-.4,1-.93,1.31-.82a2.09,2.09,0,0,1,1.11,1.32c.58,3.13,1,6.28,1.62,9.82-5.42-2.51-6.81-6.62-4-10.32m-13,28.86c-5.94-3.93-8.82-9.59-10-16.62-1.37-8.3-.72-16.29,3.34-23.52,3.51-6.26,8.4-11.34,16.26-11.86a6.74,6.74,0,0,0,1.77-.7c.41,2.51.83,5,1.27,7.64-5.78-1.11-16.15,8.25-17.34,15.08-2.35,13.44-2.6,20.82,11.78,29.2-3,2.93-3.75,3-7.1.77m48.78,30.8c-2.36-.47-3.23,1.38-4.17,3.12-2.88,5.37-5.83,10.69-8.78,16a17,17,0,0,1-1.64,2c-2.33-4-4.85-7.47-6.56-11.34-1.81-4.09-2.84-8.53-4.22-12.8-.73-2.26-1.15-4.72-2.34-6.7-.79-1.32-2.6-2.14-4.11-2.87-6.08-2.94-12.22-5.76-19-8.95,2.7-2,5-3.6,7.16-5.28,3.07-2.33,6.05-4.77,9.14-7.06a14.25,14.25,0,0,1,4.05-2.3c1.61-.51,1.73-1.45,1.6-2.83-.45-4.53-.84-9.08-1.33-14.44,4.23,1,7.93,1.56,11.34,2.87s6.77,3.54,10.23,5.12c.87.4,2.2,0,3.24-.33,1.35-.41,2.6-1.54,3.91-1.57,3.78-.07,7.59.55,11.36.36,5.77-.3,10.65,2.07,15.61,4.45,6.47,3.12,13,6.21,19.48,9.2,3.11,1.43,6.27,2.68,6.74,6.93-2.3-1.39-4.54-2.75-6.79-4.09-3.74-2.22-7.29-4.89-11.27-6.52-5.55-2.29-11.41-3.83-17.15-5.63-1.07-.34-2.26-.3-3.34-.62-1.46-.42-2.92-1.6-4.27-1.45a38.85,38.85,0,0,0-9.15,2.11,87.67,87.67,0,0,0-9.07,4.6c-4-4.09-7.91-8.34-13.86-10.18.64,6,1.23,11.57,1.75,16.45l-17.81,7.77c0,.27,0,.54,0,.8a47.43,47.43,0,0,0,6.67,3.38c3.85,1.28,7.86,2.06,11.76,3.22a3.21,3.21,0,0,1,1.95,1.85c1.59,5.86,3,11.77,4.47,17.66.36,1.43.57,2.9,1,4.3a12,12,0,0,0,1.71,2.41L187,275.67c5.13,1.56,9.93,2.73,14.5,4.5,3.58,1.38,6.21,1.09,9.16-1.62A70.71,70.71,0,0,1,221,271.2a31,31,0,0,1,15.5-4.67A64.67,64.67,0,0,1,245,267a3,3,0,0,1,1.7,1.15c-5.62.6-10.09,3.62-14.7,6.18A104.08,104.08,0,0,0,213.77,287c-.18.16-.52.23-.6.42-2.17,5-6,3.08-9.5,2.31-4.7-1-9.38-2.13-14.09-3.07m29.95,22.88a8.48,8.48,0,0,0-1.21-.2c-6.49.46-10.72-2.92-14.16-8.1-2.11-3.19-3.08-6.23-1.26-9.73a22.55,22.55,0,0,1,3.07.36c1.8.46,3.87.69,3.49,3.51a2.42,2.42,0,0,0,.82,1.7,11.67,11.67,0,0,0,14.2,1.14c1.28,1.12,2.53,2.32,3.89,3.36s2.8,1.91,4.34,2.94c-3.41,4.35-8.05,5.32-13.18,5m-23.22-19.77a14.38,14.38,0,0,1,2,.55,16.11,16.11,0,0,1,1.84,1.08c-1.33,2.91-.83,6,1.8,10.73-1.15,2.11-2.23,4-3.24,5.94s-2,3.89-2.86,5.67c-7.07-8.15-3.67-16,.44-24m23.95,33.45c-5.06,1.8-9.75-.47-14.38-1.47.78-2.23,1.43-4.08,2.06-5.92.08-.24,0-.51.09-.75,1.32-5.1,1.3-5,6.4-3.58,1.34.39,2.87.1,4.27.38.59.11,1.47.88,1.49,1.38.14,3.26.07,6.52.07,10m10.81-3.06c-.74-2.48-1.33-4.92-2.22-7.24-.66-1.69-.53-2.71,1.14-3.68,1.4-.81,2.43-2.32,3.85-3.06a6.81,6.81,0,0,1,3.68-.4c2.31.24,4.59.74,6.9,1.13-.56,3.75-5.1,8.42-13.35,13.25m20-16a63.69,63.69,0,0,1-13.44-.93c-3.88-.59-7.81-2.1-10.29-5.13-2.9-3.56-5.55-7.73-5.34-12.66.07-1.56,1.93-3,3.33-5.08,1,3,1.58,5.24,2.46,7.38,2.55,6.18,7.78,8.63,13.84,9.43a21.27,21.27,0,0,0,11-1.41c.74-.3,1.62-.24,2.35-.56a65.75,65.75,0,0,0,8.93-4.25c1.32-.85,1.88-2.91,2.67-4.25l7.38,2.85c-1.67,5.56-5,9.94-10.55,11.92a45.76,45.76,0,0,1-12.38,2.69m10.48.77,3.8-1.8c1.78,4.26,4.34,7.69,8.73,8.54a36.11,36.11,0,0,0,11.12.55c2.8-.34,4.23.37,5.25,2.74-12.28,5.68-23.6,1.89-28.9-10M300.33,317c-3.13-.6-6.36-.9-8.54-3.71a20.7,20.7,0,0,1-1.18-1.8l7.31-4.89c3.85,3.77,10.63,4.5,14.93.07.93-1,1.58-1.07,2.69-.18,1.8,1.42,3.79,2.58,5.87,4-6,6-13,8.1-21.08,6.55M352,306.69c-6.18,2.87-12.57,5.25-19.54,4.13-2.7-.43-5.95.47-7.88-2.68-.25-.4-1.67.11-2.39-.19-4.33-1.79-7.11-5.32-9.22-9.32-.75-1.42-.56-3.36-.82-5.25l11.07-3.24c1.8,8.82,8.49,11.55,16.06,11.27,7.16-.27,14.58-1.71,16.8-10.71l8.76,1.61c-2.52,6.7-6.68,11.53-12.83,14.38M367,287a12.8,12.8,0,0,0-.78-3.66l8.73-2.44c1,1.8,2.05,3.83,3.5,6.51-3.45.64-6.42,1.26-9.42,1.72-1.46.23-2.15-.37-2-2.13m31.31,8.53a15.4,15.4,0,0,1-17.2-6.78c3.14-2.2,3.93-2.09,6.72-.11a11.24,11.24,0,0,0,13.6,0c2.16-1.55,3.66-3.08,4.39-5.6.16-.54,1.23-.76,1.8-1.22,1.53-1.22,3.07-2.43,4.49-3.77.46-.44.59-1.23,1.18-1.55-.16,11.16-3.77,15.56-15,19m-.44-18.31c-.65,2.15-2.3,2.77-5.5,2.18,1-2.94,1.94-5.75,2.86-8.51,3.42,1.65,3.81,2.48,2.65,6.33m3.21-1.65c.65.75,1.63,1.83,2.56,3,1.87,2.3.31,4.6-.82,6.1-4,5.36-8.89,6.8-14.4,2.08a3.33,3.33,0,0,1-.67-1.19l3.32-4.16c2.22-.42,4.52-.34,6.23-1.32s2.54-2.94,3.78-4.48m-8.77-3.33a67.42,67.42,0,0,1-4,8.62c-.26.5-1.35.54-2.05.79,2.34-2.22,2.38-3,.15-5.24-.63-.64-1.15-1.38-1.78-2s-1.35-1.18-1.93-1.69l2.24-8.53a55.84,55.84,0,0,1,6.76,4.34c.75.63,1,2.66.61,3.72m23.79,7a22.38,22.38,0,0,0,2.69-.4,4.85,4.85,0,0,0,3.35-6,5,5,0,0,0-.7-1.48c-1.93-2.76-1.85-3.22.84-5.39.36-.28.67-.62,1-.93,2.7,2.43,4.14,10,1.71,14.33-2.3,4.09-5.63,6.2-10.25,5.51.48-2,.92-3.81,1.35-5.65m1.83-8.16a4,4,0,0,1,1.32,4.76c-.4.92-1.86,1.38-3,2.16-.49-2.93-.67-5.25,1.68-6.92m8.25,10.73c4.4-6.31,3.25-12.85-1.38-19.48,3.77,1.78,6.84,3.18,9.87,4.68a2.09,2.09,0,0,1,1.09,1.4c.39,6.43-.59,12.51-5.59,17.06a16.88,16.88,0,0,1-15.41,4.43c-.71-.15-1.44-.24-2.51-.41.59-1,1-1.74,1.5-2.49a12.28,12.28,0,0,0,12.43-5.19m9.32.19c2.28-3.91,2.85-8.36,3.17-13a30.93,30.93,0,0,0,5.24,1.73c2.38.37,2.91,1.77,2.8,3.81-.3,5.74-2.16,10.73-6.5,14.69-4.95,4.53-10.07,8.84-16.91,9.8-5.9.83-11.46,0-15-5.23,1.89-3.71,4.73-1.9,7.46-1.67,8.58.73,15.33-2.58,19.75-10.14m23.5-.51c-2.25,7.39-6.22,13.87-13.3,17.75-4.94,2.71-9.8,5.85-15.56,6.28-7.4.55-14.93,1.2-21.19-4.23-2-1.71-3.83-3.56-6-5.61,1.49-.61,2.36-1,3.24-1.35l-.32.6c3,1.77,5.75,4.32,8.95,5.08a24.82,24.82,0,0,0,11.08-.2c7.89-1.87,14.21-6.74,19.13-13.08a18.29,18.29,0,0,0,3.69-12.94,7.42,7.42,0,0,1,.15-1.32c1.42.56,2.66,1.16,4,1.54,2.58.75,3.27.09,2.56-2.51-1.24-4.5-2.59-9-3.57-13.88a20.18,20.18,0,0,0,1.13,1.81c5,6.52,8.61,13.65,6.05,22.07M453.17,232c-3.16,4.7-6.08,9.57-9.11,14.36-1.35,2.14.75,3.32,1.38,4.86,1.47,3.58,3.32,7,4.69,10.63,1.17,3.08,1.9,6.34,2.82,9.52l-.47.47c-1.9-1.16-3.8-2.33-5.72-3.45a2.24,2.24,0,0,0-1.38-.31c-2.67.45-4.71-.73-6.59-2.42-.41-.37-.85-1-1.25-1-3.75.12-6.68-2.07-9.64-3.79-2.34-1.36-3.68-.5-5,1-3,3.28-6,6.58-8.77,10-1.95,2.36-3.65,4.93-5.71,7.75a69.26,69.26,0,0,0-18.83-15.63c-6.9-4-14.54-5.81-22-8.18a49.19,49.19,0,0,1,3-4.88,2.77,2.77,0,0,1,2.29-.92c3.39.83,6.73,1.88,10.07,2.87,6.41,1.89,11.68,5.86,17,9.74,2.44,1.78,4.82,3.63,7.22,5.47.46.35,1.08.71,1.23,1.2.87,2.87,2.46,1.62,3.57.47,2.41-2.5,4.53-5.28,6.9-7.82a44.77,44.77,0,0,1,4.68-4.24,2.16,2.16,0,0,1,1.85-.23c3,1.3,6,2.65,8.85,4.14,3.26,1.68,6.41,3.57,9.68,5.25a2.43,2.43,0,0,0,2-.27c.24-.14.18-1.22-.07-1.7-.57-1.07-1.53-2-2-3.08-2-4.84-3.85-9.77-5.89-14.61-1.28-3,.42-4.89,2.12-7,2.78-3.39,5.4-6.9,8.07-10.38a12.54,12.54,0,0,0,.88-1.94c-5.39.69-10.3,1.21-15.16,2-1.84.3-2.14-.15-2.71-1.93-1.61-5-3.69-9.84-5.75-14.68a2.58,2.58,0,0,0-2.26-1.1,51.76,51.76,0,0,0-9.14,2.59,164.09,164.09,0,0,0-17.05,8.1A58.71,58.71,0,0,0,386.22,231c-3.32,3.1-6.14,6.74-9.25,10.06a37.89,37.89,0,0,1-3.57,3c.1-4.7,2.26-7.95,5.05-11.13,3.37-3.83,7.85-5.95,11.81-8.87a136.54,136.54,0,0,1,27.47-15.54,41.5,41.5,0,0,1,7.5-2,2.09,2.09,0,0,1,1.7.83c2.52,4,5.08,8.06,7.34,12.24,1.65,3.06,2.19,3.71,5.5,2.94a29.55,29.55,0,0,1,13.93.05c.6.15,1.1.78,1.7.91,1.28.28,2.59.38,3.92.55-1.94,2.47-4.24,5-6.15,7.88m-70.42,9.55a20.56,20.56,0,0,0,7.39-2.91c4.84-2.87,8.8-1.5,13,1.52,3.26,2.35,7,4,10.56,5.95,0,.14-.08.26-.11.4-6.31-.32-12.63-.76-18.94-.92s-12.52,0-18.76,0c2-1.77,3.8-3.58,6.85-4m-2-1.1c10.28-14.87,25.82-20.65,41.52-27.1-1.59,5.85-3.19,11.27-4.5,16.75-.58,2.41-1.52,3.25-4.11,3.24a62.86,62.86,0,0,0-14.16,1c-5.89,1.32-11.57,3.66-17.34,5.56-.36.12-.71.26-1.41.51m-5.27,8.36.24-1.39,38.32,1c-1.75,6-3.41,11.68-5.23,17.91-10.13-8-19.88-16.38-33.33-17.55m62.62-42.1a20.46,20.46,0,0,0-1.79-3.2l5-3.19c2.28,2.08,4.24,4.1,4.58,7.37.36,3.5,1.34,6.94.2,10.49a2.69,2.69,0,0,1-2.71,2.25c-1.61.08-3.2.5-4.82.62a1.55,1.55,0,0,1-1.28-.77c-.26-1-.71-2.32-.29-3a12.28,12.28,0,0,0,1.15-10.51m11,2.9-1.55-4.8,6.37-3.26,2.21,6.69-7,1.37m7.46,2c-.57,2.27-1.13,4.54-1.7,6.81l-.77-.19c.59-2.26,1.17-4.52,1.76-6.78l.71.16m5.62,6.36c-1.65,2.53-3.63,3.44-6,2.43,3.8-5.44,3.16-13.14,0-18.62-1.34-2.34-2.43-4.82-3.91-7.78,3.65,2,7.3,3.48,10.16,5.9,1.45,1.21,1.85,4.12,2.1,6.33a17.33,17.33,0,0,1-2.36,11.74m-8.35-25.62c-3.93-2.07-6.1-.57-8.88,1.79-3.82,3.24-8,6.07-12,9-1.29.94-2.67,1.75-4,2.62l.94.42c-2.2-.37-4.53-1.37-6.58-1A40.74,40.74,0,0,0,413,208.79c-6.34,3.22-12.52,6.77-18.65,10.38a79,79,0,0,0-8.27,5.78c-3.76,2.87-7.41,5.89-11.11,8.86-.14-2.65,1.58-4.75,3.47-6.52a120,120,0,0,1,27.23-19.39c5.87-3,11.9-5.73,17.9-8.5,1.76-.82,3.62-2.07,5.42.23.21.27,1.93-.21,2.52-.79,4.07-4,8.06-8.06,12-12.16,1.65-1.72,3.15-3.59,5-5.71,4.25,1.9,9,4,13.74,6.17,2.39,1.1,4.63,2.55,7.06,3.51,1.35.54,3,.4,4.78.61q.34,4.38.77,9.71a9.45,9.45,0,0,1-1.83-.3c-6.44-2.74-13.05-5.14-19.23-8.4m35.58-16.16c-2.68,5.71-7.06,10.09-13.72,11.85-.75-2.05-1.53-3.94-2.1-5.89a2,2,0,0,1,.62-1.74c4.21-3,7.17-10.71,6-15.82-.31-1.37-.39-2.8-.78-4.13a5.83,5.83,0,0,0-3.86-3.82c-.64-.23-1.12-.9-1.68-1.37.8-.73,1.69-2.17,2.36-2.07,2.45.35,5.2.67,7.17,2a16.66,16.66,0,0,1,6,21" transform="translate(-110.9 71.09)" fill="#161616"/><path d="M445.54-16.23c.65.38,1.48,1.33,1.42,1.94-.38,4.25-1,8.48-1.47,12.73a14,14,0,0,0,.36,3.16l.74.31A60.26,60.26,0,0,0,451-2.61a47.83,47.83,0,0,0,3.84-5.74c.92-1.57,1.83-2.27,3.76-1.54,3.25,1.24,6.61,2.21,10,3.2a4.68,4.68,0,0,0,1.78-.2,9.57,9.57,0,0,0-.47-1.58c-1.6-3.25-3.3-6.44-4.8-9.73a2.44,2.44,0,0,1,.57-2.16c2.6-2.47,5.36-4.78,8-7.22a10.11,10.11,0,0,0,1.4-2.08,7.57,7.57,0,0,0-2.64-.76c-3.6.38-7.18,1-10.78,1.43-1.4.16-2.94.67-4-1.17-2-3.6-4.2-7.08-6.31-10.62-.78-1.3-1.65-1.26-2.36,0a7.34,7.34,0,0,0-.82,2.59c-.42,3.16-.78,6.33-1.06,9.5-.21,2.28-1,3.73-3.47,4.33a39.61,39.61,0,0,0-6,2.53l-.85,1.34c.84.36,1.7.68,2.52,1.09,2.11,1,4.25,2,6.28,3.2m5.7-21c2.14,4,4.29,8,6.14,11.44l11.6-2.1.26.47c-2,1.61-4,3.29-6.07,4.83s-2.34,2.63-.89,5.08,2.67,4.8,4,7.19c-.18.18-.36.37-.55.55-2.45-.78-4.88-1.6-7.35-2.32-1.75-.51-3.2-.49-4.38,1.51-1.69,2.9-3.8,5.55-5.73,8.3-.28-.06-.55-.14-.82-.21.35-3,.67-6.08,1.07-9.11.11-.9.48-1.76.67-2.65.37-1.8-.22-2.92-2-3.64-2.1-.83-4.06-2-6.85-3.49,3.46-.95,6.22-1.72,9.08-2.52.33-4.18.7-8.66,1.05-13.15l.81-.18" transform="translate(-110.9 71.09)" fill="#161616"/><path d="M132.35,27.18c.8,2.84,1.63,5.7,2.64,8.47a4.75,4.75,0,0,0,2,1.91c.2.13,1.14-.4,1.3-.81a38.64,38.64,0,0,0,1.59-4.92c1.25-5.08,1.79-10.34,3.89-15.22.56-1.29.82-1.65,2.19-1.12a27.11,27.11,0,0,0,5.31,1.38c4.21.69,8.45,1.22,13.17,1.89-.17-.78-.11-1.74-.55-2.2-1.14-1.19-2.54-2.1-3.75-3.22-2.86-2.64-5.66-5.34-8.57-8.1,2.14-4.64,4.21-8.86,6-13.2A42.13,42.13,0,0,0,159.12-14l-.91-.63L139-5.76l0,0c-3-3.83-6-7.7-9.12-11.49a9,9,0,0,0-2.11-1.44,10.6,10.6,0,0,0-.82,2.11,20.11,20.11,0,0,0-.19,3.38c0,3.3.23,6.61.13,9.9a4.54,4.54,0,0,1-1.29,3,30.41,30.41,0,0,1-5,3.3c-2.95,1.67-6,3.23-9.67,5.21,6.09,3,11.88,4.06,17.6,4.93,1.32,4.86,2.55,9.48,3.84,14.09m-6-25A7.59,7.59,0,0,1,128.94,2V-14.51l.55-.26c3.07,4.23,6.15,8.44,9.15,12.57l16.7-8.93c.15.21.31.41.47.62-1.37,3.2-2.71,6.41-4.09,9.6-.72,1.66-1.82,3.24-2.12,5a5,5,0,0,0,1.13,3.76c2.36,2.59,5,4.9,8,7.67-3.4-.6-6.46-1.07-9.49-1.68-1.74-.35-3.43-1.09-5.18-1.28a2.57,2.57,0,0,0-2,1.41c-1.48,5.41-2.77,10.88-4.16,16.31a27.61,27.61,0,0,1-1.19,3c-2.14-7.56-4.14-14.59-6.17-21.74L115.65,8.21c3.59-2,7.08-4.09,10.64-6m12.75-8c.29.25.14.16,0,0" transform="translate(-110.9 71.09)" fill="#161616"/><path d="M434.23,165.31c0,5.56-.3,11.1-.36,16.66a9.35,9.35,0,0,0,1,2.81l1.07.18c3.85-4.41,7.7-8.83,11.46-13.12l10.86,5.35c-2-4.59-3.69-8.9-5.66-13.09-.86-1.84-.66-3.17.72-4.49s2.57-2.39,3.78-3.65c.93-1,1.75-2,2.84-3.31a87.86,87.86,0,0,0-9.17-.75,2.79,2.79,0,0,1-3.12-2.12c-.92-2.52-1.85-5-2.84-7.52a17.57,17.57,0,0,0-1.6-2.37c-.47,1.48-.72,2.24-.94,3-.78,2.74-1.56,5.47-2.3,8.22-.64,2.37-2,3.62-4.55,3.67-3.52.06-7,.47-11.15.78a25,25,0,0,0,8.63,7.6,3,3,0,0,1,1.36,2.15" transform="translate(-110.9 71.09)" fill="#161616"/><path d="M164.51,100.84c3,6.78,6.74,13,12.24,18,.78.71,1.33,2,2.19,2.24a16.79,16.79,0,0,1,7.36,3.79c3.7,3.2,8.5,3.85,13.08,4.35a100.3,100.3,0,0,0,14.19.07c6.23-.22,11.92-2.49,17.39-5.33,2.2-1.15,4.27-2.56,6.48-3.69a3,3,0,0,1,2,.16c2.3.8,4.5,1.86,6.84,2.51a35.88,35.88,0,0,0,19.15-.11c2.16-.57,4.19-2.35,6.28-2.33s3.9,2.09,6,2.48c8.48,1.57,16.79,1.14,24.53-3.24.88-.5,1.61-1.61,2.5-1.73,1.36-.18,1.63-2.57,3.68-1.4a32.83,32.83,0,0,0,6.83,2.54c6.69,2,13.32,1.78,19.6-1.43,2.95-1.51,5.64-3.54,8.53-5.38,4.52,3.1,11.91,5.09,18,5.44a54.5,54.5,0,0,0,18.09-2.2q7.92-2.27,15.79-4.66a2.18,2.18,0,0,0,1.29-1.25c.39-1.55,1.37-1.38,2.43-1.06,5.44,1.65,10.78,3.84,16.33,4.84A21.92,21.92,0,0,0,431,110.78a103.66,103.66,0,0,0,11.54-8.33c3.3-2.74,6.47-6.08,7.4-10.32a80.53,80.53,0,0,0,1.94-17c0-7.63-1.65-14.94-8.19-20.17,2.71-2.18,5.21-4.43,5.64-8.08.23-2,.34-4,.55-6,.73-7.23-2.72-12.39-8.2-16.28-5-3.53-10.72-4.67-16.74-4.67-2.81,0-5.62-.37-8.69-.6a112.55,112.55,0,0,0,2-11.24,31.15,31.15,0,0,0-.72-8.11c-.92-5-2-9.91-3.17-14.85-.85-3.7-1.7-7.41-2.89-11-1.73-5.2-4-10.23-5.64-15.46-2.19-6.82-6.13-11.95-12.93-14.29-5.91-2-12-3.48-18.28-2-2.56.61-5,1.85-7.49,2.61a5.15,5.15,0,0,1-2.55-.32,15.73,15.73,0,0,1-2-.85c-6.1-2.43-12.21-.81-18.12.47s-11.56,3.77-15.71,8.5a30.89,30.89,0,0,0-2.7-2.9c-1.82-1.53-3.55-3.5-5.67-4.25A55.51,55.51,0,0,0,308.81-57a46.83,46.83,0,0,0-11.47-.21,46,46,0,0,0-10.21,3c-3.94,1.47-8,2.89-10.56,6.39-3.42-5-7.85-9-13.49-10.14C257.21-59.21,251-59.2,245-59a161.39,161.39,0,0,0-17.56,1.91c-4,.55-8,1.46-12,2.22-2.15.41-4.35.68-6.45,1.29-2.49.73-5.3,1.23-7.25,2.76a61,61,0,0,0-9.22,9.17c-1.32,1.6-1.73,4-2.37,6.12-1.3,4.29-.16,8.34,1.37,12.32,2.39,6.2,5.84,11.29,12.4,13.74,1.38.52,3.75,1.32,3.57,3.69-.31,4.1-1,8.17-1.24,12.27a47.75,47.75,0,0,0,.2,8.62c.45,3.9,1.26,7.76,1.86,11.35-2.67.27-5.46.11-8,.9-6.16,2-12.21,4.14-17.72,7.86s-10.47,8.22-13.66,14.12a64,64,0,0,0-5.06,13.52c-1.3,4.82-3.07,9.5-2.82,14.78.37,7.9.15,15.77,3.46,23.22m3.22-18c.62-5.42,1.14-10.88,2.11-16.25A59.93,59.93,0,0,1,173.26,54a30.48,30.48,0,0,1,15.48-16c7.47-3.57,14.94-6.39,23.33-6a29.72,29.72,0,0,0,4.81-.27c1-.11,1.5-.51,1.15-1.79-.58-2.17-.47-4.61-1.36-6.62-2.93-6.64-2.75-13.73-3.15-20.72-.27-4.7-.05-9.44-.05-14.35-2.34-1.11-5.19-2.23-7.81-3.77-6.35-3.7-9.24-9.66-9.54-16.85a16,16,0,0,1,10.21-15.35c2.83-1.13,5.69-2.17,8.6-3.08a17.21,17.21,0,0,1,3.36-.23c7-.69,14-1.13,20.94-2.18,9.06-1.37,17.67.15,26,3.57,4.25,1.75,6.17,2.77,10.87,10.22,6.63-9.07,15.95-12.09,26.46-11.37s19.92,3.93,26.25,13.76c4-7.09,8.36-13.44,16.55-14.49,7.43-.94,14.83-.5,20.2,6.14,1.41-1.19,2.74-2.15,3.87-3.31,5.75-6,15.41-4.23,21.17-.62,5.93,3.72,8.71,9.71,11.74,15.58,3.13,6.07,4.63,12.68,5.76,19.32A199.12,199.12,0,0,1,410.76,8c.29,5.15.19,10.5-2.23,15.38a3.54,3.54,0,0,0,0,1.52c4.57-.25,8.82-.95,13-.57a34.4,34.4,0,0,1,11.26,3c4.42,2.09,10.87,9.05,10.52,15.42-.27,4.75-2,8.52-6.53,10.5a3.74,3.74,0,0,0-.84.64c2.34,2.75,4.53,5.48,6.89,8.06a17.17,17.17,0,0,1,4.36,10.81,43.63,43.63,0,0,1-3.74,20.53c-3.88,8.84-11.44,11.88-19.6,14.34-7,2.1-13.49.94-19.64-2.78-1.69-1-3.27-2.23-5-3.11a2.61,2.61,0,0,0-2.38.27c-4,3.82-8.83,5.6-13.93,7.34-6.46,2.22-13,2.27-19.48,1.54-4.74-.54-9.42-2.3-14-4-2.42-.89-4.49-2.77-6.92-4.33-1,1.23-2.29,2.73-3.52,4.26-3.8,4.7-8.93,6.75-14.68,7.29-1.6.15-3.27-.57-4.91-.93-2.37-.52-4.91-.71-7.07-1.72-1.83-.86-3.22-2.68-5-4.22a4.42,4.42,0,0,0-1,.93c-3.78,6-9.73,7.91-16.23,9.12a18.17,18.17,0,0,1-14.66-3,12.18,12.18,0,0,1-3.16-3.65c-.71-1.21-1.08-1.17-2-.29a33.77,33.77,0,0,1-3.9,3.27c-1.59,1.12-3.38,2-5,3.08-2.85,2-12.36,2.2-15.14,0a18.68,18.68,0,0,1-2.95-3.14c-1.48-1.86-2.38-2-3.76,0a9,9,0,0,1-8.14,4.16,20.84,20.84,0,0,1-3.39-.79c-5,5.26-11.83,6.5-19.1,7a30.23,30.23,0,0,1-22-7c-3.74-3-7.83-5.79-10.81-9.46-2.66-3.29-4.27-7.56-5.87-11.6s-3.07-8.46-2.54-13.07" transform="translate(-110.9 71.09)" fill="#161616"/><path d="M125.74,78.45c1,3.79,1.49,7.75,2.23,11.62A12,12,0,0,0,129,92.51c.62-.68,1.56-1.25,1.8-2,1.27-4.24,2.36-8.53,3.53-12.87,3.74-1,7.45,2.5,11.41,1.17l.33-.9-8.53-7,5.14-10.59-.78-.64c-4.95.29-7.76,5.35-12.56,5.9-1.87-1.74-3.81-3.62-5.85-5.37a2.81,2.81,0,0,0-1.93-.46c-.25,0-.64.87-.61,1.33a22.06,22.06,0,0,0,.65,5.78c1,2.83-.33,3.69-2.54,4.73A58.37,58.37,0,0,0,112.29,76l.39,1.27c3,0,6.08-.12,9.11,0,1.38.08,3.74.46,3.94,1.19M124.33,71c-.32-2.41-.65-4.85-1-7.28.24-.13.48-.26.73-.38l5,5.4,10.41-6.24c-1.25,2.43-2,4.44-3.2,6.06-1.55,2-1,3.38.61,4.9A15.79,15.79,0,0,1,138.82,76c-1.25-.21-3-.4-4.71-.81s-2.63,0-2.75,2.08c-.17,3-.67,6-1,9h-1.05a72,72,0,0,1-1.28-8c-.12-2.2-1-3-3-2.92-2.78.07-5.57,0-8.35,0l-.25-.75,7.94-3.7" transform="translate(-110.9 71.09)" fill="#161616"/><path d="M344.34,214a13.58,13.58,0,0,1-1.48-.5l7.55-11.21h-9.27l7-8.12c-4.48-1.71-8.21,1.45-12.37.75.46-.74.87-1.51,1.39-2.19,1.81-2.36,3.68-4.67,5.46-7.05.35-.47.7-1.31.51-1.72s-1.07-.66-1.63-.64c-2.53.08-5.06.25-7.58.45-6.75.54-13.51,1-20.24,1.73-5.57.6-11.12,1.47-16.66,2.32q-9.21,1.4-18.38,3c-3.12.55-6.17,1.42-9.28,2-3.74.74-7.5,1.36-11.26,2-1.9.33-2.6,1.4-2.26,3.35.55,3.1.89,6.23,1.45,9.32,1.26,6.89,2.63,13.75,3.86,20.64a5.91,5.91,0,0,1-.52,2.48c-.74,2.47-2,5-.15,7.41s4.51,3,7.41,2.29c.31-.07.61-.2.92-.3a16.09,16.09,0,0,0,.87,2.5c1.28,2.38,2.55,4.77,4,7.06a27.08,27.08,0,0,0,10.13,9.55c5.87,3.19,12.18,3.6,18.61,3.27,3.16-.17,6.31-.51,9.45-.89.66-.09,1.24-.94,1.89-1,4.21-.38,7.64-2.69,11-4.86a41.58,41.58,0,0,0,8.49-7.51,37.31,37.31,0,0,0,6-9.76c.95-2.12,1.2-4.54,1.87-6.8.47-1.6.78-3.2,2.69-4,4.31-1.88,5.08-3.4,4.85-8.33a5.37,5.37,0,0,0-4.3-5.26m-79,24.62a3.66,3.66,0,0,1-3.62-3.11c-.46-2.25.78-3.73,2.6-4.62,1.41-.68,2.4.12,2.78,1.57.3,1.1.4,2.26.71,3.36.61,2.18.13,2.84-2.47,2.8m70.32,2a36.69,36.69,0,0,1-7.6,10c-3.05,2.84-7,4.71-10.76,6.72a27.37,27.37,0,0,1-6.84,2.55,39.87,39.87,0,0,1-24.16-1.65c-4.86-1.94-8-5.82-11-10-3.85-5.33-5.12-11.51-6.08-17.8a28.08,28.08,0,0,1,2.1-16.2,62.45,62.45,0,0,1,6.24-10.34,19.89,19.89,0,0,1,5.94-5.83,28,28,0,0,1,9.5-3.17,102.94,102.94,0,0,1,18.3-1.4c6.6.28,12.07,3.84,17.12,8.22a32.41,32.41,0,0,1,7.89,9.94,37,37,0,0,1,3.54,12.77,36.63,36.63,0,0,1-4.16,16.17m6.71-15.84c-.33-2.6-.64-5-.95-7.44,2.66-.75,4.36-.15,4.79,1.71a4.64,4.64,0,0,1-3.39,5.64l-.45.09" transform="translate(-110.9 71.09)" fill="#161616"/><path d="M326.06,213.67c1.68,0,2-1.08,2-1.74a1.82,1.82,0,0,0-1.7-1.93h-.25a1.64,1.64,0,0,0-1.77,1.49.67.67,0,0,0,0,.2c0,.62.05,2,1.73,2" transform="translate(-110.9 71.09)" fill="#161616"/><path d="M327.85,229.16c-1.18,3-2.18,6-3.58,8.88-1.9,3.86-5.26,6.43-8.45,9.14-4.47,3.82-9.74,4.6-15.16,3.66A21.73,21.73,0,0,1,284.44,239a20.74,20.74,0,0,0-2.44-3.72c-.4-.48-1.29-.54-2-.79,0,.67-.21,1.47.08,2,1,1.88,2.25,3.66,3.38,5.49,5.72,9.2,18.8,13.46,29.11,9.32a31,31,0,0,0,9.15-6.42,35.4,35.4,0,0,0,6.26-8.19c1.47-2.56,2.6-5.55.56-9.32l-.73,1.84" transform="translate(-110.9 71.09)" fill="#161616"/><path d="M275.1,218.89a1.57,1.57,0,0,0-1.77,1.32,2.29,2.29,0,0,0,0,.37c0,.62.06,2,1.74,2s2-1.07,2-1.73a1.82,1.82,0,0,0-1.7-1.93h-.25" transform="translate(-110.9 71.09)" fill="#161616"/><path d="M306.85,224.54a1.89,1.89,0,0,0,0-2.44c-2,2-3.46,3.56-5.53,1.55-.16-.16-.81.2-1.23.31.13.52.12,1.17.44,1.52,1.44,1.58,5.34,1,6.29-.94" transform="translate(-110.9 71.09)" fill="#161616"/><path d="M328.4,201.74c-5-4.38-10.52-7.94-17.12-8.22a102.87,102.87,0,0,0-18.3,1.4,28,28,0,0,0-9.5,3.17,19.78,19.78,0,0,0-5.94,5.83,61.12,61.12,0,0,0-6.24,10.34,28.09,28.09,0,0,0-2.1,16.2c1,6.29,2.23,12.47,6.08,17.8,3,4.14,6.17,8,11,10a39.86,39.86,0,0,0,24.16,1.65,27.13,27.13,0,0,0,6.84-2.55c3.73-2,7.71-3.88,10.76-6.72a37,37,0,0,0,11.76-26.15,37,37,0,0,0-3.54-12.77,32.41,32.41,0,0,0-7.89-9.94m-53.34,20.81c-1.68,0-1.72-1.35-1.73-2a1.56,1.56,0,0,1,1.41-1.7,1.54,1.54,0,0,1,.37,0,1.81,1.81,0,0,1,1.94,1.68,1.93,1.93,0,0,1,0,.24c0,.67-.32,1.74-2,1.74m51-12.55a1.81,1.81,0,0,1,1.95,1.68,1,1,0,0,1,0,.25c0,.66-.31,1.74-2,1.74s-1.73-1.36-1.73-2a1.64,1.64,0,0,1,1.57-1.7h.2m-24.74,13.65c2.06,2,3.48.46,5.52-1.55a1.88,1.88,0,0,1,0,2.44c-.94,1.94-4.85,2.52-6.29.94-.31-.35-.3-1-.44-1.52.42-.12,1.07-.47,1.24-.31m26.67,13a35.38,35.38,0,0,1-6.27,8.18,30.73,30.73,0,0,1-9.14,6.42c-10.32,4.14-23.4-.12-29.11-9.32-1.14-1.83-2.35-3.61-3.39-5.49-.29-.52-.07-1.32-.08-2,.67.25,1.56.32,2,.8a20.27,20.27,0,0,1,2.43,3.71,21.72,21.72,0,0,0,16.22,11.88c5.43.95,10.69.16,15.16-3.65,3.19-2.71,6.55-5.29,8.45-9.15,1.41-2.85,2.4-5.9,3.58-8.87.17-.4.32-.81.73-1.85,2,3.77.91,6.77-.55,9.33" transform="translate(-110.9 71.09)" fill="#fff"/><path d="M267.11,232.48c-.39-1.44-1.37-2.24-2.78-1.56-1.83.89-3.06,2.37-2.61,4.62a3.67,3.67,0,0,0,3.62,3.11c2.6,0,3.08-.62,2.47-2.8-.3-1.1-.41-2.26-.7-3.36" transform="translate(-110.9 71.09)" fill="#fff"/><path d="M341.43,217.34c.31,2.43.62,4.84.95,7.44a4.65,4.65,0,0,0,3.93-5.28,3.58,3.58,0,0,0-.09-.45c-.43-1.86-2.13-2.45-4.79-1.71" transform="translate(-110.9 71.09)" fill="#fff"/></g></svg>